<?xml version="1.0" encoding="UTF-8"?>
<svg id="Layer_1" data-name="Layer 1" xmlns="http://www.w3.org/2000/svg" viewBox="0 0 1010.79 139.29">
  <defs>
    <style>
      .cls-1 {
        fill: #fff;
      }
    </style>
  </defs>
  <path class="cls-1" d="M135.83,10.88c-44.02,0-87.53-2.17-130.43-6.45v130.43c19.18-11.11,41.46-17.46,65.22-17.46s46.03,6.35,65.22,17.46c19.18-11.11,41.46-17.46,65.22-17.46s46.03,6.35,65.22,17.44V4.43c-42.9,4.28-86.42,6.45-130.43,6.45ZM85.99,85.02c-3.93,3.93-9.37,6.37-15.37,6.37s-11.44-2.43-15.37-6.37c-3.93-3.93-6.37-9.36-6.37-15.37s2.43-11.44,6.37-15.37c3.93-3.93,9.37-6.37,15.37-6.37,12,0,21.74,9.74,21.74,21.74,0,6.02-2.44,11.44-6.37,15.37ZM216.42,85.02c-3.93,3.93-9.37,6.37-15.37,6.37h-21.74v-21.74c0-12,9.74-21.74,21.74-21.74s21.74,9.74,21.74,21.74c0,6.02-2.44,11.44-6.37,15.37Z"/>
  <g>
    <path class="cls-1" d="M371.19,52.67c-.14-.38-.31-.73-.52-1.05-.21-.31-.47-.57-.78-.78-.31-.21-.66-.38-1.04-.52-.35-.13-.75-.18-1.18-.19l-.02-.02h-.21l-.02.02c-.43.01-.84.06-1.18.19-.38.14-.73.31-1.05.52-.31.21-.57.47-.78.78-.21.31-.38.66-.52,1.05-.13.35-.18.75-.19,1.18l-.02.02v.21l.02.02c.01.43.06.84.19,1.18.14.38.31.73.52,1.05.21.31.47.57.78.78.31.21.66.38,1.05.52.35.13.75.18,1.18.19l.02.02h.21l.02-.02c.43-.01.84-.06,1.18-.19.38-.14.73-.31,1.04-.52.32-.21.58-.47.78-.78.21-.31.38-.66.52-1.05.13-.34.18-.75.19-1.18l.02-.02v-.21l-.02-.02c-.01-.43-.06-.83-.19-1.18Z"/>
    <path class="cls-1" d="M381.64,94.46c-.14-.38-.31-.73-.52-1.04-.21-.31-.47-.58-.78-.78-.31-.21-.66-.38-1.04-.52-.35-.13-.75-.18-1.18-.19l-.02-.02h-.21l-.02.02c-.43.01-.84.06-1.18.19-.38.14-.73.31-1.04.52-.32.21-.58.47-.78.78-.21.31-.38.66-.52,1.04-.13.35-.18.75-.19,1.18l-.02.02v.21l.02.02c.01.43.06.84.19,1.18.14.38.31.73.52,1.05.21.31.47.57.78.78.31.21.66.38,1.04.52.35.13.75.18,1.18.19l.02.02h.21l.02-.02c.43-.01.83-.06,1.18-.19.38-.14.73-.31,1.04-.52.31-.21.58-.47.78-.78.21-.31.38-.66.52-1.05.12-.35.18-.75.19-1.18l.02-.02v-.21l-.02-.02c-.01-.43-.06-.83-.19-1.18Z"/>
    <path class="cls-1" d="M371.19,42.22c-.14-.38-.31-.73-.52-1.04-.21-.31-.47-.58-.78-.78-.31-.21-.66-.38-1.04-.52-.35-.12-.75-.18-1.18-.19l-.02-.02h-.21l-.02.02c-.43.01-.84.06-1.18.19-.38.14-.73.31-1.05.52-.31.21-.57.47-.78.78-.21.31-.38.66-.52,1.04-.13.35-.18.75-.19,1.18l-.02.02v.21l.02.02c.01.43.06.84.19,1.18.14.38.31.73.52,1.04.21.31.47.57.78.78.31.21.66.38,1.05.52.35.13.75.18,1.18.19l.02.02h.21l.02-.02c.43-.01.84-.06,1.18-.19.38-.14.73-.31,1.04-.52.32-.21.58-.47.78-.78s.38-.66.52-1.04c.13-.35.18-.75.19-1.18l.02-.02v-.21l-.02-.02c-.01-.43-.06-.83-.19-1.18Z"/>
    <path class="cls-1" d="M381.64,42.22c-.14-.38-.31-.73-.52-1.04-.21-.31-.47-.58-.78-.78-.31-.21-.66-.38-1.04-.52-.35-.12-.75-.18-1.18-.19l-.02-.02h-.21l-.02.02c-.43.01-.84.06-1.18.19-.38.14-.73.31-1.04.52-.32.21-.58.47-.78.78-.21.31-.38.66-.52,1.04-.13.35-.18.75-.19,1.18l-.02.02v.21l.02.02c.01.43.06.84.19,1.18.14.38.31.73.52,1.04.21.31.47.57.78.78.31.21.66.38,1.04.52.35.13.75.18,1.18.19l.02.02h.21l.02-.02c.43-.01.83-.06,1.18-.19.38-.14.73-.31,1.04-.52.31-.21.58-.47.78-.78s.38-.66.52-1.04c.12-.35.18-.75.19-1.18l.02-.02v-.21l-.02-.02c-.01-.43-.06-.83-.19-1.18Z"/>
    <path class="cls-1" d="M402.53,52.67c-.14-.38-.32-.73-.52-1.05-.21-.31-.47-.57-.78-.78-.31-.21-.66-.38-1.05-.52-.35-.13-.75-.18-1.18-.19l-.02-.02h-.21l-.02.02c-.43.01-.84.06-1.18.19-.38.14-.73.31-1.04.52-.31.21-.57.47-.78.78-.21.31-.39.66-.52,1.05-.13.35-.18.75-.19,1.18l-.02.02v.21l.02.02c.01.43.06.84.19,1.18.14.38.31.73.52,1.05.21.31.47.57.78.78.31.21.66.38,1.04.52.35.13.75.18,1.18.19l.02.02h.21l.02-.02c.43-.01.84-.06,1.18-.19.38-.14.73-.31,1.05-.52.31-.21.57-.47.78-.78.21-.31.38-.66.52-1.05.12-.35.18-.75.19-1.18l.02-.02v-.21l-.02-.02c-.01-.43-.06-.83-.19-1.18Z"/>
    <path class="cls-1" d="M392.08,42.22c-.14-.38-.31-.73-.52-1.04-.21-.31-.47-.58-.78-.78-.31-.21-.66-.38-1.05-.52-.35-.12-.75-.18-1.18-.19l-.02-.02h-.21l-.02.02c-.43.01-.84.06-1.18.19-.38.14-.73.31-1.05.52-.31.21-.57.47-.78.78-.21.31-.38.66-.52,1.04-.13.35-.18.75-.19,1.18l-.02.02v.21l.02.02c.01.43.06.84.19,1.18.14.38.32.73.52,1.04.21.31.47.57.78.78.31.21.66.38,1.05.52.35.13.75.18,1.18.19l.02.02h.21l.02-.02c.43-.01.84-.06,1.18-.19.38-.14.73-.31,1.05-.52.31-.21.57-.47.78-.78.21-.31.38-.66.52-1.04.13-.35.18-.75.19-1.18l.02-.02v-.21l-.02-.02c-.01-.43-.06-.83-.19-1.18Z"/>
    <path class="cls-1" d="M392.08,94.46c-.14-.38-.31-.73-.52-1.04-.21-.31-.47-.58-.78-.78-.31-.21-.66-.38-1.05-.52-.35-.13-.75-.18-1.18-.19l-.02-.02h-.21l-.02.02c-.43.01-.84.06-1.18.19-.38.14-.73.31-1.05.52-.31.21-.57.47-.78.78-.21.31-.38.66-.52,1.04-.13.35-.18.75-.19,1.18l-.02.02v.21l.02.02c.01.43.06.84.19,1.18.14.38.32.73.52,1.05.21.31.47.57.78.78.31.21.66.38,1.05.52.35.13.75.18,1.18.19l.02.02h.21l.02-.02c.43-.01.84-.06,1.18-.19.38-.14.73-.31,1.05-.52.31-.21.57-.47.78-.78.21-.31.38-.66.52-1.05.13-.34.18-.75.19-1.18l.02-.02v-.21l-.02-.02c-.01-.43-.06-.83-.19-1.18Z"/>
    <path class="cls-1" d="M402.53,84.01c-.14-.38-.32-.73-.52-1.04-.21-.31-.47-.58-.78-.78-.31-.21-.66-.38-1.05-.52-.35-.13-.75-.18-1.18-.19l-.02-.02h-.21l-.02.02c-.43.01-.84.06-1.18.19-.38.14-.73.31-1.04.52-.31.21-.57.47-.78.78-.21.31-.39.66-.52,1.04-.13.35-.18.75-.19,1.18l-.02.02v.21l.02.02c.01.43.06.84.19,1.18.14.38.31.73.52,1.04.21.31.47.57.78.78.31.21.66.38,1.04.52.35.13.75.18,1.18.19l.02.02h.21l.02-.02c.43-.01.84-.06,1.18-.19.38-.14.73-.31,1.05-.52.31-.21.57-.47.78-.78.21-.31.38-.66.52-1.04.12-.35.18-.75.19-1.18l.02-.02v-.21l-.02-.02c-.01-.43-.06-.83-.19-1.18Z"/>
    <path class="cls-1" d="M360.74,73.56c-.14-.38-.31-.73-.52-1.04-.21-.31-.47-.57-.78-.78-.31-.21-.66-.38-1.05-.52-.35-.13-.75-.18-1.18-.19l-.02-.02h-.21l-.02.02c-.43.01-.84.06-1.18.19-.38.14-.73.31-1.05.52-.31.21-.57.47-.78.78-.21.31-.38.66-.52,1.04-.13.35-.18.75-.19,1.18l-.02.02v.21l.02.02c.01.43.06.84.19,1.18.14.38.31.73.52,1.04.21.31.47.58.78.78.31.21.66.38,1.05.52.34.13.75.18,1.18.19l.02.02h.21l.02-.02c.43-.01.83-.06,1.18-.19.38-.14.73-.31,1.05-.52.31-.21.57-.47.78-.78.21-.31.38-.66.52-1.04.13-.35.18-.75.19-1.18l.02-.02v-.21l-.02-.02c-.01-.43-.06-.84-.19-1.18Z"/>
    <path class="cls-1" d="M360.74,52.67c-.14-.38-.31-.73-.52-1.05-.21-.31-.47-.57-.78-.78-.31-.21-.66-.38-1.05-.52-.35-.13-.75-.18-1.18-.19l-.02-.02h-.21l-.02.02c-.43.01-.84.06-1.18.19-.38.14-.73.31-1.05.52-.31.21-.57.47-.78.78-.21.31-.38.66-.52,1.05-.13.35-.18.75-.19,1.18l-.02.02v.21l.02.02c.01.43.06.84.19,1.18.14.38.31.73.52,1.05.21.31.47.57.78.78.31.21.66.38,1.05.52.34.13.75.18,1.18.19l.02.02h.21l.02-.02c.43-.01.83-.06,1.18-.19.38-.14.73-.31,1.05-.52.31-.21.57-.47.78-.78.21-.31.38-.66.52-1.05.13-.35.18-.75.19-1.18l.02-.02v-.21l-.02-.02c-.01-.43-.06-.83-.19-1.18Z"/>
    <path class="cls-1" d="M360.74,63.12c-.14-.38-.31-.73-.52-1.05-.21-.31-.47-.57-.78-.78-.31-.21-.66-.38-1.05-.52-.35-.13-.75-.18-1.18-.19l-.02-.02h-.21l-.02.02c-.43.01-.84.06-1.18.19-.38.14-.73.31-1.05.52-.31.21-.57.47-.78.78-.21.31-.38.66-.52,1.05-.13.35-.18.75-.19,1.18l-.02.02v.21l.02.02c.01.43.06.84.19,1.18.14.38.31.73.52,1.04.21.31.47.58.78.78.31.21.66.38,1.05.52.34.13.75.18,1.18.19l.02.02h.21l.02-.02c.43-.01.83-.06,1.18-.19.38-.14.73-.31,1.05-.52.31-.21.57-.47.78-.78.21-.31.38-.66.52-1.04.13-.35.18-.75.19-1.18l.02-.02v-.21l-.02-.02c-.01-.43-.06-.84-.19-1.18Z"/>
    <path class="cls-1" d="M371.19,63.12c-.14-.38-.31-.73-.52-1.05-.21-.31-.47-.57-.78-.78-.31-.21-.66-.38-1.04-.52-.35-.13-.75-.18-1.18-.19l-.02-.02h-.21l-.02.02c-.43.01-.84.06-1.18.19-.38.14-.73.31-1.05.52-.31.21-.57.47-.78.78-.21.31-.38.66-.52,1.05-.13.35-.18.75-.19,1.18l-.02.02v.21l.02.02c.01.43.06.84.19,1.18.14.38.31.73.52,1.04.21.31.47.58.78.78.31.21.66.38,1.05.52.35.13.75.18,1.18.19l.02.02h.21l.02-.02c.43-.01.84-.06,1.18-.19.38-.14.73-.31,1.04-.52.32-.21.58-.47.78-.78.21-.31.38-.66.52-1.04.13-.35.18-.75.19-1.18l.02-.02v-.21l-.02-.02c-.01-.43-.06-.83-.19-1.18Z"/>
    <path class="cls-1" d="M360.74,84.01c-.14-.38-.31-.73-.52-1.04-.21-.31-.47-.58-.78-.78-.31-.21-.66-.38-1.05-.52-.35-.13-.75-.18-1.18-.19l-.02-.02h-.21l-.02.02c-.43.01-.84.06-1.18.19-.38.14-.73.31-1.05.52-.31.21-.57.47-.78.78-.21.31-.38.66-.52,1.04-.13.35-.18.75-.19,1.18l-.02.02v.21l.02.02c.01.43.06.84.19,1.18.14.38.31.73.52,1.04.21.31.47.57.78.78.31.21.66.38,1.05.52.34.13.75.18,1.18.19l.02.02h.21l.02-.02c.43-.01.83-.06,1.18-.19.38-.14.73-.31,1.05-.52.31-.21.57-.47.78-.78.21-.31.38-.66.52-1.04.13-.35.18-.75.19-1.18l.02-.02v-.21l-.02-.02c-.01-.43-.06-.83-.19-1.18Z"/>
    <path class="cls-1" d="M371.19,84.01c-.14-.38-.31-.73-.52-1.04-.21-.31-.47-.58-.78-.78-.31-.21-.66-.38-1.04-.52-.35-.13-.75-.18-1.18-.19l-.02-.02h-.21l-.02.02c-.43.01-.84.06-1.18.19-.38.14-.73.31-1.05.52-.31.21-.57.47-.78.78-.21.31-.38.66-.52,1.04-.13.35-.18.75-.19,1.18l-.02.02v.21l.02.02c.01.43.06.84.19,1.18.14.38.31.73.52,1.04.21.31.47.57.78.78.31.21.66.38,1.05.52.35.13.75.18,1.18.19l.02.02h.21l.02-.02c.43-.01.84-.06,1.18-.19.38-.14.73-.31,1.04-.52.32-.21.58-.47.78-.78s.38-.66.52-1.04c.13-.35.18-.75.19-1.18l.02-.02v-.21l-.02-.02c-.01-.43-.06-.83-.19-1.18Z"/>
    <path class="cls-1" d="M371.19,94.46c-.14-.38-.31-.73-.52-1.04-.21-.31-.47-.58-.78-.78-.31-.21-.66-.38-1.04-.52-.35-.13-.75-.18-1.18-.19l-.02-.02h-.21l-.02.02c-.43.01-.84.06-1.18.19-.38.14-.73.31-1.05.52-.31.21-.57.47-.78.78-.21.31-.38.66-.52,1.04-.13.35-.18.75-.19,1.18l-.02.02v.21l.02.02c.01.43.06.84.19,1.18.14.38.31.73.52,1.05.21.31.47.57.78.78.31.21.66.38,1.05.52.35.13.75.18,1.18.19l.02.02h.21l.02-.02c.43-.01.84-.06,1.18-.19.38-.14.73-.31,1.04-.52.32-.21.58-.47.78-.78.21-.31.38-.66.52-1.05.13-.34.18-.75.19-1.18l.02-.02v-.21l-.02-.02c-.01-.43-.06-.83-.19-1.18Z"/>
    <path class="cls-1" d="M371.19,73.56c-.14-.38-.31-.73-.52-1.04-.21-.31-.47-.57-.78-.78-.31-.21-.66-.38-1.04-.52-.35-.13-.75-.18-1.18-.19l-.02-.02h-.21l-.02.02c-.43.01-.84.06-1.18.19-.38.14-.73.31-1.05.52-.31.21-.57.47-.78.78-.21.31-.38.66-.52,1.04-.13.35-.18.75-.19,1.18l-.02.02v.21l.02.02c.01.43.06.84.19,1.18.14.38.31.73.52,1.04.21.31.47.58.78.78.31.21.66.38,1.05.52.35.13.75.18,1.18.19l.02.02h.21l.02-.02c.43-.01.84-.06,1.18-.19.38-.14.73-.31,1.04-.52.32-.21.58-.47.78-.78.21-.31.38-.66.52-1.04.13-.35.18-.75.19-1.18l.02-.02v-.21l-.02-.02c-.01-.43-.06-.83-.19-1.18Z"/>
    <path class="cls-1" d="M444.76,73.56c-.14-.38-.31-.73-.52-1.04-.21-.31-.47-.57-.78-.78-.32-.21-.66-.38-1.05-.52-.35-.13-.75-.18-1.18-.19l-.02-.02h-.21l-.02.02c-.43.01-.84.06-1.18.19-.38.14-.73.31-1.04.52-.31.21-.58.47-.78.78-.21.31-.38.66-.52,1.04-.13.35-.18.75-.19,1.18l-.02.02v.21l.02.02c.01.43.06.84.19,1.18.14.38.31.73.52,1.04.21.31.47.58.78.78.31.21.66.38,1.04.52.35.13.75.18,1.18.19l.02.02h.21l.02-.02c.43-.01.84-.06,1.18-.19.38-.14.73-.31,1.05-.52.31-.21.57-.47.78-.78.21-.31.38-.66.52-1.04.12-.35.18-.75.19-1.18l.02-.02v-.21l-.02-.02c-.01-.43-.06-.83-.19-1.18Z"/>
    <path class="cls-1" d="M444.76,63.12c-.14-.38-.31-.73-.52-1.05-.21-.31-.47-.57-.78-.78-.32-.21-.66-.38-1.05-.52-.35-.13-.75-.18-1.18-.19l-.02-.02h-.21l-.02.02c-.43.01-.84.06-1.18.19-.38.14-.73.31-1.04.52-.31.21-.58.47-.78.78-.21.31-.38.66-.52,1.05-.13.35-.18.75-.19,1.18l-.02.02v.21l.02.02c.01.43.06.84.19,1.18.14.38.31.73.52,1.04.21.31.47.58.78.78.31.21.66.38,1.04.52.35.13.75.18,1.18.19l.02.02h.21l.02-.02c.43-.01.84-.06,1.18-.19.38-.14.73-.31,1.05-.52.31-.21.57-.47.78-.78.21-.31.38-.66.52-1.04.12-.35.18-.75.19-1.18l.02-.02v-.21l-.02-.02c-.01-.43-.06-.83-.19-1.18Z"/>
    <path class="cls-1" d="M444.76,52.67c-.14-.38-.31-.73-.52-1.05-.21-.31-.47-.57-.78-.78-.32-.21-.66-.38-1.05-.52-.35-.13-.75-.18-1.18-.19l-.02-.02h-.21l-.02.02c-.43.01-.84.06-1.18.19-.38.14-.73.31-1.04.52-.31.21-.58.47-.78.78-.21.31-.38.66-.52,1.05-.13.35-.18.75-.19,1.18l-.02.02v.21l.02.02c.01.43.06.84.19,1.18.14.38.31.73.52,1.05.21.31.47.57.78.78.31.21.66.38,1.04.52.35.13.75.18,1.18.19l.02.02h.21l.02-.02c.43-.01.84-.06,1.18-.19.38-.14.73-.31,1.05-.52.31-.21.57-.47.78-.78.21-.31.38-.66.52-1.05.12-.35.18-.75.19-1.18l.02-.02v-.21l-.02-.02c-.01-.43-.06-.83-.19-1.18Z"/>
    <path class="cls-1" d="M444.76,84.01c-.14-.38-.31-.73-.52-1.04-.21-.31-.47-.58-.78-.78-.32-.21-.66-.38-1.05-.52-.35-.13-.75-.18-1.18-.19l-.02-.02h-.21l-.02.02c-.43.01-.84.06-1.18.19-.38.14-.73.31-1.04.52-.31.21-.58.47-.78.78-.21.31-.38.66-.52,1.04-.13.35-.18.75-.19,1.18l-.02.02v.21l.02.02c.01.43.06.84.19,1.18.14.38.31.73.52,1.04.21.31.47.57.78.78.31.21.66.38,1.04.52.35.13.75.18,1.18.19l.02.02h.21l.02-.02c.43-.01.84-.06,1.18-.19.38-.14.73-.31,1.05-.52.31-.21.57-.47.78-.78.21-.31.38-.66.52-1.04.12-.35.18-.75.19-1.18l.02-.02v-.21l-.02-.02c-.01-.43-.06-.83-.19-1.18Z"/>
    <path class="cls-1" d="M444.76,94.46c-.14-.38-.31-.73-.52-1.04-.21-.31-.47-.58-.78-.78-.32-.21-.66-.38-1.05-.52-.35-.13-.75-.18-1.18-.19l-.02-.02h-.21l-.02.02c-.43.01-.84.06-1.18.19-.38.14-.73.31-1.04.52-.31.21-.58.47-.78.78-.21.31-.38.66-.52,1.04-.13.35-.18.75-.19,1.18l-.02.02v.21l.02.02c.01.43.06.84.19,1.18.14.38.31.73.52,1.05.21.31.47.57.78.78.31.21.66.38,1.04.52.35.13.75.18,1.18.19l.02.02h.21l.02-.02c.43-.01.84-.06,1.18-.19.38-.14.73-.31,1.05-.52.31-.21.57-.47.78-.78.21-.31.38-.66.52-1.05.12-.35.18-.75.19-1.18l.02-.02v-.21l-.02-.02c-.01-.43-.06-.83-.19-1.18Z"/>
    <path class="cls-1" d="M455.21,42.22c-.14-.38-.31-.73-.52-1.04-.21-.31-.47-.58-.78-.78-.31-.21-.66-.38-1.05-.52-.35-.12-.75-.18-1.18-.19l-.02-.02h-.21l-.02.02c-.43.01-.84.06-1.18.19-.39.14-.73.31-1.05.52s-.57.47-.78.78c-.21.31-.38.66-.52,1.04-.13.35-.18.75-.19,1.18l-.02.02v.21l.02.02c.01.43.06.84.19,1.18.14.38.31.73.52,1.04.21.31.47.57.78.78.31.21.66.38,1.05.52.34.13.75.18,1.18.19l.02.02h.21l.02-.02c.43-.01.83-.06,1.18-.19.38-.14.73-.31,1.05-.52.31-.21.57-.47.78-.78s.38-.66.52-1.04c.13-.35.18-.75.19-1.18l.02-.02v-.21l-.02-.02c-.01-.43-.06-.83-.19-1.18Z"/>
    <path class="cls-1" d="M444.76,42.22c-.14-.38-.31-.73-.52-1.04-.21-.31-.47-.58-.78-.78-.32-.21-.66-.38-1.05-.52-.35-.12-.75-.18-1.18-.19l-.02-.02h-.21l-.02.02c-.43.01-.84.06-1.18.19-.38.14-.73.31-1.04.52-.31.21-.58.47-.78.78-.21.31-.38.66-.52,1.04-.13.35-.18.75-.19,1.18l-.02.02v.21l.02.02c.01.43.06.84.19,1.18.14.38.31.73.52,1.04.21.31.47.57.78.78.31.21.66.38,1.04.52.35.13.75.18,1.18.19l.02.02h.21l.02-.02c.43-.01.84-.06,1.18-.19.38-.14.73-.31,1.05-.52.31-.21.57-.47.78-.78.21-.31.38-.66.52-1.04.12-.35.18-.75.19-1.18l.02-.02v-.21l-.02-.02c-.01-.43-.06-.83-.19-1.18Z"/>
    <path class="cls-1" d="M455.21,94.46c-.14-.38-.31-.73-.52-1.04-.21-.31-.47-.58-.78-.78-.31-.21-.66-.38-1.05-.52-.35-.13-.75-.18-1.18-.19l-.02-.02h-.21l-.02.02c-.43.01-.84.06-1.18.19-.39.14-.73.31-1.05.52-.31.21-.57.47-.78.78-.21.31-.38.66-.52,1.04-.13.35-.18.75-.19,1.18l-.02.02v.21l.02.02c.01.43.06.84.19,1.18.14.38.31.73.52,1.05.21.31.47.57.78.78.31.21.66.38,1.05.52.34.13.75.18,1.18.19l.02.02h.21l.02-.02c.43-.01.83-.06,1.18-.19.38-.14.73-.31,1.05-.52.31-.21.57-.47.78-.78.21-.31.38-.66.52-1.05.13-.35.18-.75.19-1.18l.02-.02v-.21l-.02-.02c-.01-.43-.06-.83-.19-1.18Z"/>
    <path class="cls-1" d="M434.32,52.67c-.14-.38-.31-.73-.52-1.05-.21-.31-.47-.57-.78-.78-.31-.21-.66-.38-1.04-.52-.35-.13-.75-.18-1.18-.19l-.02-.02h-.21l-.02.02c-.43.01-.83.06-1.18.19-.38.14-.73.31-1.04.52-.31.21-.57.47-.78.78-.21.31-.38.66-.52,1.05-.13.35-.18.75-.19,1.18l-.02.02v.21l.02.02c.01.43.06.84.19,1.18.14.38.31.73.52,1.05.21.31.47.57.78.78.31.21.66.38,1.04.52.35.13.75.18,1.18.19l.02.02h.21l.02-.02c.43-.01.83-.06,1.18-.19.38-.14.73-.31,1.04-.52.31-.21.58-.47.78-.78.21-.31.38-.66.52-1.05.13-.35.18-.75.19-1.18l.02-.02v-.21l-.02-.02c-.01-.43-.06-.83-.19-1.18Z"/>
    <path class="cls-1" d="M423.87,42.22c-.14-.38-.31-.73-.52-1.04-.21-.31-.47-.58-.78-.78-.31-.21-.66-.38-1.04-.52-.35-.12-.75-.18-1.18-.19l-.02-.02h-.21l-.02.02c-.43.01-.84.06-1.18.19-.38.14-.73.31-1.05.52-.31.21-.57.47-.78.78-.21.31-.38.66-.52,1.04-.13.35-.18.75-.19,1.18l-.02.02v.21l.02.02c.01.43.06.84.19,1.18.14.38.31.73.52,1.04.21.31.47.57.78.78.32.21.66.38,1.05.52.34.13.75.18,1.18.19l.02.02h.21l.02-.02c.43-.01.84-.06,1.18-.19.38-.14.73-.31,1.04-.52.31-.21.57-.47.78-.78.21-.31.38-.66.52-1.04.12-.35.18-.75.19-1.18l.02-.02v-.21l-.02-.02c-.01-.43-.06-.83-.19-1.18Z"/>
    <path class="cls-1" d="M434.32,94.46c-.14-.38-.31-.73-.52-1.04-.21-.31-.47-.58-.78-.78-.31-.21-.66-.38-1.04-.52-.35-.13-.75-.18-1.18-.19l-.02-.02h-.21l-.02.02c-.43.01-.83.06-1.18.19-.38.14-.73.31-1.04.52-.31.21-.57.47-.78.78-.21.31-.38.66-.52,1.04-.13.35-.18.75-.19,1.18l-.02.02v.21l.02.02c.01.43.06.84.19,1.18.14.38.31.73.52,1.05.21.31.47.57.78.78.31.21.66.38,1.04.52.35.13.75.18,1.18.19l.02.02h.21l.02-.02c.43-.01.83-.06,1.18-.19.38-.14.73-.31,1.04-.52.31-.21.58-.47.78-.78.21-.31.38-.66.52-1.05.13-.35.18-.75.19-1.18l.02-.02v-.21l-.02-.02c-.01-.43-.06-.83-.19-1.18Z"/>
    <path class="cls-1" d="M434.32,42.22c-.14-.38-.31-.73-.52-1.04-.21-.31-.47-.58-.78-.78-.31-.21-.66-.38-1.04-.52-.35-.12-.75-.18-1.18-.19l-.02-.02h-.21l-.02.02c-.43.01-.83.06-1.18.19-.38.14-.73.31-1.04.52-.31.21-.57.47-.78.78-.21.31-.38.66-.52,1.04-.13.35-.18.75-.19,1.18l-.02.02v.21l.02.02c.01.43.06.84.19,1.18.14.38.31.73.52,1.04.21.31.47.57.78.78.31.21.66.38,1.04.52.35.13.75.18,1.18.19l.02.02h.21l.02-.02c.43-.01.83-.06,1.18-.19.38-.14.73-.31,1.04-.52.31-.21.58-.47.78-.78.21-.31.38-.66.52-1.04.13-.35.18-.75.19-1.18l.02-.02v-.21l-.02-.02c-.01-.43-.06-.83-.19-1.18Z"/>
    <path class="cls-1" d="M434.32,84.01c-.14-.38-.31-.73-.52-1.04-.21-.31-.47-.58-.78-.78-.31-.21-.66-.38-1.04-.52-.35-.13-.75-.18-1.18-.19l-.02-.02h-.21l-.02.02c-.43.01-.83.06-1.18.19-.38.14-.73.31-1.04.52-.31.21-.57.47-.78.78-.21.31-.38.66-.52,1.04-.13.35-.18.75-.19,1.18l-.02.02v.21l.02.02c.01.43.06.84.19,1.18.14.38.31.73.52,1.04.21.31.47.57.78.78.31.21.66.38,1.04.52.35.13.75.18,1.18.19l.02.02h.21l.02-.02c.43-.01.83-.06,1.18-.19.38-.14.73-.31,1.04-.52.31-.21.58-.47.78-.78.21-.31.38-.66.52-1.04.13-.35.18-.75.19-1.18l.02-.02v-.21l-.02-.02c-.01-.43-.06-.83-.19-1.18Z"/>
    <path class="cls-1" d="M423.87,94.46c-.14-.38-.31-.73-.52-1.04-.21-.31-.47-.58-.78-.78-.31-.21-.66-.38-1.04-.52-.35-.13-.75-.18-1.18-.19l-.02-.02h-.21l-.02.02c-.43.01-.84.06-1.18.19-.38.14-.73.31-1.05.52-.31.21-.57.47-.78.78-.21.31-.38.66-.52,1.04-.13.35-.18.75-.19,1.18l-.02.02v.21l.02.02c.01.43.06.84.19,1.18.14.38.31.73.52,1.05.21.31.47.57.78.78.32.21.66.38,1.05.52.34.13.75.18,1.18.19l.02.02h.21l.02-.02c.43-.01.84-.06,1.18-.19.38-.14.73-.31,1.04-.52.31-.21.57-.47.78-.78.21-.31.38-.66.52-1.05.12-.35.18-.75.19-1.18l.02-.02v-.21l-.02-.02c-.01-.43-.06-.83-.19-1.18Z"/>
    <path class="cls-1" d="M434.32,63.12c-.14-.38-.31-.73-.52-1.05-.21-.31-.47-.57-.78-.78-.31-.21-.66-.38-1.04-.52-.35-.13-.75-.18-1.18-.19l-.02-.02h-.21l-.02.02c-.43.01-.83.06-1.18.19-.38.14-.73.31-1.04.52-.31.21-.57.47-.78.78-.21.31-.38.66-.52,1.05-.13.35-.18.75-.19,1.18l-.02.02v.21l.02.02c.01.43.06.84.19,1.18.14.38.31.73.52,1.04.21.31.47.58.78.78.31.21.66.38,1.04.52.35.13.75.18,1.18.19l.02.02h.21l.02-.02c.43-.01.83-.06,1.18-.19.38-.14.73-.31,1.04-.52.31-.21.58-.47.78-.78.21-.31.38-.66.52-1.04.13-.35.18-.75.19-1.18l.02-.02v-.21l-.02-.02c-.01-.43-.06-.83-.19-1.18Z"/>
    <path class="cls-1" d="M434.32,73.56c-.14-.38-.31-.73-.52-1.04-.21-.31-.47-.57-.78-.78-.31-.21-.66-.38-1.04-.52-.35-.13-.75-.18-1.18-.19l-.02-.02h-.21l-.02.02c-.43.01-.83.06-1.18.19-.38.14-.73.31-1.04.52-.31.21-.57.47-.78.78-.21.31-.38.66-.52,1.04-.13.35-.18.75-.19,1.18l-.02.02v.21l.02.02c.01.43.06.84.19,1.18.14.38.31.73.52,1.04.21.31.47.58.78.78.31.21.66.38,1.04.52.35.13.75.18,1.18.19l.02.02h.21l.02-.02c.43-.01.83-.06,1.18-.19.38-.14.73-.31,1.04-.52.31-.21.58-.47.78-.78.21-.31.38-.66.52-1.04.13-.35.18-.75.19-1.18l.02-.02v-.21l-.02-.02c-.01-.43-.06-.83-.19-1.18Z"/>
    <path class="cls-1" d="M513.56,73.56c-.14-.38-.31-.73-.52-1.04-.21-.31-.47-.57-.78-.78-.31-.21-.66-.38-1.05-.52-.35-.13-.75-.18-1.18-.19l-.02-.02h-.21l-.02.02c-.43.01-.84.06-1.18.19-.38.14-.73.31-1.05.52-.31.21-.57.47-.78.78-.21.31-.38.66-.52,1.04-.13.35-.18.75-.19,1.18l-.02.02v.21l.02.02c.01.43.06.84.19,1.18.14.38.31.73.52,1.04.21.31.47.58.78.78.31.21.66.38,1.05.52.34.13.75.18,1.18.19l.02.02h.21l.02-.02c.43-.01.83-.06,1.18-.19.38-.14.73-.31,1.05-.52.31-.21.57-.47.78-.78.21-.31.38-.66.52-1.04.13-.35.18-.75.19-1.18l.02-.02v-.21l-.02-.02c-.01-.43-.06-.83-.19-1.18Z"/>
    <path class="cls-1" d="M524,84.01c-.14-.38-.32-.73-.52-1.04-.21-.31-.47-.58-.78-.78-.32-.21-.66-.38-1.04-.52-.35-.13-.75-.18-1.18-.19l-.02-.02h-.21l-.02.02c-.43.01-.84.06-1.18.19-.38.14-.73.31-1.05.52-.31.21-.57.47-.78.78-.21.31-.38.66-.52,1.04-.13.35-.18.75-.19,1.18l-.02.02v.21l.02.02c.01.43.06.84.19,1.18.14.38.31.73.52,1.04.21.31.47.57.78.78.31.21.66.38,1.05.52.35.13.75.18,1.18.19l.02.02h.21l.02-.02c.43-.01.84-.06,1.18-.19.38-.14.73-.31,1.04-.52.31-.21.57-.47.78-.78s.38-.66.52-1.04c.12-.35.18-.75.19-1.18l.02-.02v-.21l-.02-.02c-.01-.43-.06-.83-.19-1.18Z"/>
    <path class="cls-1" d="M513.56,84.01c-.14-.38-.31-.73-.52-1.04-.21-.31-.47-.58-.78-.78-.31-.21-.66-.38-1.05-.52-.35-.13-.75-.18-1.18-.19l-.02-.02h-.21l-.02.02c-.43.01-.84.06-1.18.19-.38.14-.73.31-1.05.52-.31.21-.57.47-.78.78-.21.31-.38.66-.52,1.04-.13.35-.18.75-.19,1.18l-.02.02v.21l.02.02c.01.43.06.84.19,1.18.14.38.31.73.52,1.04.21.31.47.57.78.78.31.21.66.38,1.05.52.34.13.75.18,1.18.19l.02.02h.21l.02-.02c.43-.01.83-.06,1.18-.19.38-.14.73-.31,1.05-.52.31-.21.57-.47.78-.78.21-.31.38-.66.52-1.04.13-.35.18-.75.19-1.18l.02-.02v-.21l-.02-.02c-.01-.43-.06-.83-.19-1.18Z"/>
    <path class="cls-1" d="M524,42.22c-.14-.38-.32-.73-.52-1.04-.21-.31-.47-.58-.78-.78-.32-.21-.66-.38-1.04-.52-.35-.12-.75-.18-1.18-.19l-.02-.02h-.21l-.02.02c-.43.01-.84.06-1.18.19-.38.14-.73.31-1.05.52-.31.21-.57.47-.78.78-.21.31-.38.66-.52,1.04-.13.35-.18.75-.19,1.18l-.02.02v.21l.02.02c.01.43.06.84.19,1.18.14.38.31.73.52,1.04.21.31.47.57.78.78.31.21.66.38,1.05.52.35.13.75.18,1.18.19l.02.02h.21l.02-.02c.43-.01.84-.06,1.18-.19.38-.14.73-.31,1.04-.52.31-.21.57-.47.78-.78s.38-.66.52-1.04c.12-.35.18-.75.19-1.18l.02-.02v-.21l-.02-.02c-.01-.43-.06-.83-.19-1.18Z"/>
    <path class="cls-1" d="M503.11,63.12c-.14-.38-.31-.73-.52-1.05-.21-.31-.47-.57-.78-.78-.32-.21-.66-.38-1.05-.52-.35-.13-.75-.18-1.18-.19l-.02-.02h-.21l-.02.02c-.43.01-.84.06-1.18.19-.38.14-.73.31-1.04.52-.32.21-.58.47-.78.78-.21.31-.38.66-.52,1.05-.13.35-.18.75-.19,1.18l-.02.02v.21l.02.02c.01.43.06.84.19,1.18.14.38.31.73.52,1.04.21.31.47.58.78.78.31.21.66.38,1.04.52.35.13.75.18,1.18.19l.02.02h.21l.02-.02c.43-.01.84-.06,1.18-.19.38-.14.73-.31,1.05-.52.31-.21.57-.47.78-.78.21-.31.38-.66.52-1.04.12-.35.18-.75.19-1.18l.02-.02v-.21l-.02-.02c-.01-.43-.06-.83-.19-1.18Z"/>
    <path class="cls-1" d="M524,73.56c-.14-.38-.32-.73-.52-1.04-.21-.31-.47-.57-.78-.78-.32-.21-.66-.38-1.04-.52-.35-.13-.75-.18-1.18-.19l-.02-.02h-.21l-.02.02c-.43.01-.84.06-1.18.19-.38.14-.73.31-1.05.52-.31.21-.57.47-.78.78-.21.31-.38.66-.52,1.04-.13.35-.18.75-.19,1.18l-.02.02v.21l.02.02c.01.43.06.84.19,1.18.14.38.31.73.52,1.04.21.31.47.58.78.78.31.21.66.38,1.05.52.35.13.75.18,1.18.19l.02.02h.21l.02-.02c.43-.01.84-.06,1.18-.19.38-.14.73-.31,1.04-.52.31-.21.57-.47.78-.78.21-.31.38-.66.52-1.04.12-.35.18-.75.19-1.18l.02-.02v-.21l-.02-.02c-.01-.43-.06-.83-.19-1.18Z"/>
    <path class="cls-1" d="M524,52.67c-.14-.38-.32-.73-.52-1.05-.21-.31-.47-.57-.78-.78-.32-.21-.66-.38-1.04-.52-.35-.13-.75-.18-1.18-.19l-.02-.02h-.21l-.02.02c-.43.01-.84.06-1.18.19-.38.14-.73.31-1.05.52-.31.21-.57.47-.78.78-.21.31-.38.66-.52,1.05-.13.35-.18.75-.19,1.18l-.02.02v.21l.02.02c.01.43.06.84.19,1.18.14.38.31.73.52,1.05.21.31.47.57.78.78.31.21.66.38,1.05.52.35.13.75.18,1.18.19l.02.02h.21l.02-.02c.43-.01.84-.06,1.18-.19.38-.14.73-.31,1.04-.52.31-.21.57-.47.78-.78.21-.31.38-.66.52-1.05.12-.35.18-.75.19-1.18l.02-.02v-.21l-.02-.02c-.01-.43-.06-.83-.19-1.18Z"/>
    <path class="cls-1" d="M524,63.12c-.14-.38-.32-.73-.52-1.05-.21-.31-.47-.57-.78-.78-.32-.21-.66-.38-1.04-.52-.35-.13-.75-.18-1.18-.19l-.02-.02h-.21l-.02.02c-.43.01-.84.06-1.18.19-.38.14-.73.31-1.05.52-.31.21-.57.47-.78.78-.21.31-.38.66-.52,1.05-.13.35-.18.75-.19,1.18l-.02.02v.21l.02.02c.01.43.06.84.19,1.18.14.38.31.73.52,1.04.21.31.47.58.78.78.31.21.66.38,1.05.52.35.13.75.18,1.18.19l.02.02h.21l.02-.02c.43-.01.84-.06,1.18-.19.38-.14.73-.31,1.04-.52.31-.21.57-.47.78-.78.21-.31.38-.66.52-1.04.12-.35.18-.75.19-1.18l.02-.02v-.21l-.02-.02c-.01-.43-.06-.83-.19-1.18Z"/>
    <path class="cls-1" d="M524,94.46c-.14-.38-.32-.73-.52-1.04-.21-.31-.47-.58-.78-.78-.32-.21-.66-.38-1.04-.52-.35-.13-.75-.18-1.18-.19l-.02-.02h-.21l-.02.02c-.43.01-.84.06-1.18.19-.38.14-.73.31-1.05.52-.31.21-.57.47-.78.78-.21.31-.38.66-.52,1.04-.13.35-.18.75-.19,1.18l-.02.02v.21l.02.02c.01.43.06.84.19,1.18.14.38.31.73.52,1.05.21.31.47.57.78.78.31.21.66.38,1.05.52.35.13.75.18,1.18.19l.02.02h.21l.02-.02c.43-.01.84-.06,1.18-.19.38-.14.73-.31,1.04-.52.31-.21.57-.47.78-.78.21-.31.38-.66.52-1.05.12-.35.18-.75.19-1.18l.02-.02v-.21l-.02-.02c-.01-.43-.06-.83-.19-1.18Z"/>
    <path class="cls-1" d="M482.22,84.01c-.14-.38-.32-.73-.52-1.04-.21-.31-.47-.58-.78-.78-.31-.21-.66-.38-1.05-.52-.35-.13-.75-.18-1.18-.19l-.02-.02h-.21l-.02.02c-.43.01-.84.06-1.18.19-.38.14-.73.31-1.04.52-.31.21-.57.47-.78.78-.21.31-.38.66-.52,1.04-.13.35-.18.75-.19,1.18l-.02.02v.21l.02.02c.01.43.06.84.19,1.18.14.38.31.73.52,1.04.21.31.47.57.78.78.31.21.66.38,1.04.52.34.13.75.18,1.18.19l.02.02h.21l.02-.02c.43-.01.84-.06,1.18-.19.38-.14.73-.31,1.05-.52.31-.21.57-.47.78-.78.21-.31.38-.66.52-1.04.12-.35.18-.75.19-1.18l.02-.02v-.21l-.02-.02c-.01-.43-.06-.83-.19-1.18Z"/>
    <path class="cls-1" d="M482.22,73.56c-.14-.38-.32-.73-.52-1.04-.21-.31-.47-.57-.78-.78-.31-.21-.66-.38-1.05-.52-.35-.13-.75-.18-1.18-.19l-.02-.02h-.21l-.02.02c-.43.01-.84.06-1.18.19-.38.14-.73.31-1.04.52-.31.21-.57.47-.78.78-.21.31-.38.66-.52,1.04-.13.35-.18.75-.19,1.18l-.02.02v.21l.02.02c.01.43.06.84.19,1.18.14.38.31.73.52,1.04.21.31.47.58.78.78.31.21.66.38,1.04.52.34.13.75.18,1.18.19l.02.02h.21l.02-.02c.43-.01.84-.06,1.18-.19.38-.14.73-.31,1.05-.52.31-.21.57-.47.78-.78.21-.31.38-.66.52-1.04.12-.35.18-.75.19-1.18l.02-.02v-.21l-.02-.02c-.01-.43-.06-.83-.19-1.18Z"/>
    <path class="cls-1" d="M482.22,94.46c-.14-.38-.32-.73-.52-1.04-.21-.31-.47-.58-.78-.78-.31-.21-.66-.38-1.05-.52-.35-.13-.75-.18-1.18-.19l-.02-.02h-.21l-.02.02c-.43.01-.84.06-1.18.19-.38.14-.73.31-1.04.52-.31.21-.57.47-.78.78-.21.31-.38.66-.52,1.04-.13.35-.18.75-.19,1.18l-.02.02v.21l.02.02c.01.43.06.84.19,1.18.14.38.31.73.52,1.05.21.31.47.57.78.78.31.21.66.38,1.04.52.34.13.75.18,1.18.19l.02.02h.21l.02-.02c.43-.01.84-.06,1.18-.19.38-.14.73-.31,1.05-.52.31-.21.57-.47.78-.78.21-.31.38-.66.52-1.05.12-.35.18-.75.19-1.18l.02-.02v-.21l-.02-.02c-.01-.43-.06-.83-.19-1.18Z"/>
    <path class="cls-1" d="M482.22,63.12c-.14-.38-.32-.73-.52-1.05-.21-.31-.47-.57-.78-.78-.31-.21-.66-.38-1.05-.52-.35-.13-.75-.18-1.18-.19l-.02-.02h-.21l-.02.02c-.43.01-.84.06-1.18.19-.38.14-.73.31-1.04.52-.31.21-.57.47-.78.78-.21.31-.38.66-.52,1.05-.13.35-.18.75-.19,1.18l-.02.02v.21l.02.02c.01.43.06.84.19,1.18.14.38.31.73.52,1.04.21.31.47.58.78.78.31.21.66.38,1.04.52.34.13.75.18,1.18.19l.02.02h.21l.02-.02c.43-.01.84-.06,1.18-.19.38-.14.73-.31,1.05-.52.31-.21.57-.47.78-.78.21-.31.38-.66.52-1.04.12-.35.18-.75.19-1.18l.02-.02v-.21l-.02-.02c-.01-.43-.06-.84-.19-1.18Z"/>
    <path class="cls-1" d="M503.11,73.56c-.14-.38-.31-.73-.52-1.04-.21-.31-.47-.57-.78-.78-.32-.21-.66-.38-1.05-.52-.35-.13-.75-.18-1.18-.19l-.02-.02h-.21l-.02.02c-.43.01-.84.06-1.18.19-.38.14-.73.31-1.04.52-.32.21-.58.47-.78.78-.21.31-.38.66-.52,1.04-.13.35-.18.75-.19,1.18l-.02.02v.21l.02.02c.01.43.06.84.19,1.18.14.38.31.73.52,1.04.21.31.47.58.78.78.31.21.66.38,1.04.52.35.13.75.18,1.18.19l.02.02h.21l.02-.02c.43-.01.84-.06,1.18-.19.38-.14.73-.31,1.05-.52.31-.21.57-.47.78-.78.21-.31.38-.66.52-1.04.12-.35.18-.75.19-1.18l.02-.02v-.21l-.02-.02c-.01-.43-.06-.83-.19-1.18Z"/>
    <path class="cls-1" d="M482.22,52.67c-.14-.38-.32-.73-.52-1.05-.21-.31-.47-.57-.78-.78-.31-.21-.66-.38-1.05-.52-.35-.13-.75-.18-1.18-.19l-.02-.02h-.21l-.02.02c-.43.01-.84.06-1.18.19-.38.14-.73.31-1.04.52-.31.21-.57.47-.78.78-.21.31-.38.66-.52,1.05-.13.35-.18.75-.19,1.18l-.02.02v.21l.02.02c.01.43.06.84.19,1.18.14.38.31.73.52,1.05.21.31.47.57.78.78.31.21.66.38,1.04.52.34.13.75.18,1.18.19l.02.02h.21l.02-.02c.43-.01.84-.06,1.18-.19.38-.14.73-.31,1.05-.52.31-.21.57-.47.78-.78.21-.31.38-.66.52-1.05.12-.35.18-.75.19-1.18l.02-.02v-.21l-.02-.02c-.01-.43-.06-.83-.19-1.18Z"/>
    <path class="cls-1" d="M492.66,52.67c-.14-.38-.31-.73-.52-1.05-.21-.31-.47-.57-.78-.78-.31-.21-.66-.38-1.04-.52-.35-.13-.75-.18-1.18-.19l-.02-.02h-.21l-.02.02c-.43.01-.84.06-1.18.19-.38.14-.73.31-1.05.52-.31.21-.57.47-.78.78-.21.31-.38.66-.52,1.05-.13.35-.18.75-.19,1.18l-.02.02v.21l.02.02c.01.43.06.84.19,1.18.14.38.31.73.52,1.05.21.31.47.57.78.78.31.21.66.38,1.05.52.34.13.75.18,1.18.19l.02.02h.21l.02-.02c.43-.01.83-.06,1.18-.19.38-.14.73-.31,1.04-.52.32-.21.58-.47.78-.78.21-.31.38-.66.52-1.05.13-.35.18-.75.19-1.18l.02-.02v-.21l-.02-.02c-.01-.43-.06-.83-.19-1.18Z"/>
    <path class="cls-1" d="M482.22,42.22c-.14-.38-.32-.73-.52-1.04-.21-.31-.47-.58-.78-.78-.31-.21-.66-.38-1.05-.52-.35-.12-.75-.18-1.18-.19l-.02-.02h-.21l-.02.02c-.43.01-.84.06-1.18.19-.38.14-.73.31-1.04.52-.31.21-.57.47-.78.78-.21.31-.38.66-.52,1.04-.13.35-.18.75-.19,1.18l-.02.02v.21l.02.02c.01.43.06.84.19,1.18.14.38.31.73.52,1.04.21.31.47.57.78.78.31.21.66.38,1.04.52.34.13.75.18,1.18.19l.02.02h.21l.02-.02c.43-.01.84-.06,1.18-.19.38-.14.73-.31,1.05-.52.31-.21.57-.47.78-.78.21-.31.38-.66.52-1.04.12-.35.18-.75.19-1.18l.02-.02v-.21l-.02-.02c-.01-.43-.06-.83-.19-1.18Z"/>
    <path class="cls-1" d="M492.66,63.12c-.14-.38-.31-.73-.52-1.05-.21-.31-.47-.57-.78-.78-.31-.21-.66-.38-1.04-.52-.35-.13-.75-.18-1.18-.19l-.02-.02h-.21l-.02.02c-.43.01-.83.06-1.18.19-.38.14-.73.31-1.05.52-.31.21-.57.47-.78.78-.21.31-.38.66-.52,1.05-.13.35-.18.75-.19,1.18l-.02.02v.21l.02.02c.01.43.06.84.19,1.18.14.38.31.73.52,1.04.21.31.47.58.78.78.31.21.66.38,1.05.52.34.13.75.18,1.18.19l.02.02h.21l.02-.02c.43-.01.83-.06,1.18-.19.38-.14.73-.31,1.04-.52.32-.21.58-.47.78-.78.21-.31.38-.66.52-1.04.13-.35.18-.75.19-1.18l.02-.02v-.21l-.02-.02c-.01-.43-.06-.83-.19-1.18Z"/>
    <path class="cls-1" d="M571.01,63.12c-.14-.38-.31-.73-.52-1.05-.21-.31-.47-.57-.78-.78-.32-.21-.66-.38-1.04-.52-.35-.13-.75-.18-1.18-.19l-.02-.02h-.21l-.02.02c-.43.01-.84.06-1.18.19-.38.14-.73.31-1.05.52-.31.21-.57.47-.78.78-.21.31-.38.66-.52,1.05-.13.35-.18.75-.19,1.18l-.02.02v.21l.02.02c.01.43.06.84.19,1.18.14.38.31.73.52,1.04.21.31.47.58.78.78s.66.38,1.05.52c.35.13.75.18,1.18.19l.02.02h.21l.02-.02c.43-.01.84-.06,1.19-.19.38-.14.73-.31,1.04-.52s.57-.47.78-.78c.21-.31.38-.66.52-1.04.13-.35.18-.75.19-1.18l.02-.02v-.21l-.02-.02c-.01-.43-.06-.83-.19-1.18Z"/>
    <path class="cls-1" d="M581.46,94.46c-.14-.38-.31-.73-.52-1.04-.21-.31-.47-.58-.78-.78-.31-.21-.66-.38-1.04-.52-.35-.13-.75-.18-1.18-.19l-.02-.02h-.21l-.02.02c-.43.01-.84.06-1.18.19-.38.14-.73.31-1.04.52-.32.21-.58.47-.78.78-.21.31-.38.66-.52,1.04-.13.35-.18.75-.19,1.18l-.02.02v.21l.02.02c.01.43.06.84.19,1.18.14.38.31.73.52,1.05.21.31.47.57.78.78.31.21.66.38,1.04.52.34.13.75.18,1.18.19l.02.02h.21l.02-.02c.43-.01.83-.06,1.18-.19.38-.14.73-.31,1.04-.52.31-.21.58-.47.78-.78.21-.31.38-.66.52-1.05.12-.35.18-.75.19-1.18l.02-.02v-.21l-.02-.02c-.01-.43-.06-.83-.19-1.18Z"/>
    <path class="cls-1" d="M571.01,94.46c-.14-.38-.31-.73-.52-1.04-.21-.31-.47-.58-.78-.78-.32-.21-.66-.38-1.04-.52-.35-.13-.75-.18-1.19-.19l-.02-.02h-.21l-.02.02c-.43.01-.84.06-1.18.19-.38.14-.73.31-1.05.52-.31.21-.57.47-.78.78-.21.31-.38.66-.52,1.04-.13.35-.18.75-.19,1.18l-.02.02v.21l.02.02c.01.43.06.84.19,1.18.14.38.31.73.52,1.05.21.31.47.57.78.78.31.21.66.38,1.05.52.35.13.75.18,1.18.19l.02.02h.21l.02-.02c.43-.01.84-.06,1.19-.19.38-.14.73-.31,1.04-.52.32-.21.57-.47.78-.78.21-.31.38-.66.52-1.05.13-.34.18-.75.19-1.18l.02-.02v-.21l-.02-.02c-.01-.43-.06-.83-.19-1.18Z"/>
    <path class="cls-1" d="M560.57,42.22c-.14-.38-.31-.73-.52-1.04-.21-.31-.47-.58-.78-.78-.31-.21-.66-.38-1.05-.52-.35-.12-.75-.18-1.18-.19l-.02-.02h-.21l-.02.02c-.43.01-.84.06-1.18.19-.38.14-.73.31-1.04.52-.31.21-.57.47-.78.78-.21.31-.38.66-.52,1.04-.13.35-.18.75-.19,1.18l-.02.02v.21l.02.02c.01.43.06.84.19,1.18.14.38.31.73.52,1.04.21.31.47.57.78.78.31.21.66.38,1.04.52.35.13.75.18,1.18.19l.02.02h.21l.02-.02c.43-.01.83-.06,1.18-.19.38-.14.73-.31,1.05-.52.31-.21.57-.47.78-.78.21-.31.38-.66.52-1.04.12-.35.18-.75.19-1.18l.02-.02v-.21l-.02-.02c-.01-.43-.07-.83-.19-1.18Z"/>
    <path class="cls-1" d="M571.01,42.22c-.14-.38-.31-.73-.52-1.04-.21-.31-.47-.58-.78-.78s-.66-.38-1.04-.52c-.35-.12-.75-.18-1.19-.19l-.02-.02h-.21l-.02.02c-.43.01-.84.06-1.18.19-.38.14-.73.31-1.05.52s-.57.47-.78.78c-.21.31-.38.66-.52,1.04-.13.35-.18.75-.19,1.18l-.02.02v.21l.02.02c.01.43.06.84.19,1.18.14.38.31.73.52,1.04.21.31.47.57.78.78.31.21.66.38,1.05.52.35.13.75.18,1.18.19l.02.02h.21l.02-.02c.43-.01.84-.06,1.18-.19.38-.14.73-.31,1.04-.52.32-.21.57-.47.78-.78.21-.31.38-.66.52-1.04.13-.35.18-.75.19-1.18l.02-.02v-.21l-.02-.02c-.01-.43-.06-.83-.19-1.18Z"/>
    <path class="cls-1" d="M591.91,94.46c-.14-.38-.31-.73-.52-1.04-.21-.31-.47-.58-.78-.78-.31-.21-.66-.38-1.05-.52-.35-.13-.75-.18-1.18-.19l-.02-.02h-.21l-.02.02c-.43.01-.84.06-1.18.19-.38.14-.73.31-1.05.52-.31.21-.57.47-.78.78-.21.31-.38.66-.52,1.04-.13.35-.18.75-.19,1.18l-.02.02v.21l.02.02c.01.43.06.84.19,1.18.14.38.32.73.52,1.05.21.31.47.57.78.78.31.21.66.38,1.05.52.34.13.75.18,1.18.19l.02.02h.21l.02-.02c.43-.01.83-.06,1.18-.19.38-.14.73-.31,1.05-.52.31-.21.57-.47.78-.78.21-.31.38-.66.52-1.05.13-.35.18-.75.19-1.18l.02-.02v-.21l-.02-.02c-.01-.43-.06-.83-.19-1.18Z"/>
    <path class="cls-1" d="M591.91,42.22c-.14-.38-.31-.73-.52-1.04-.21-.31-.47-.58-.78-.78-.31-.21-.66-.38-1.05-.52-.35-.12-.75-.18-1.18-.19l-.02-.02h-.21l-.02.02c-.43.01-.83.06-1.18.19-.38.14-.73.31-1.05.52-.31.21-.57.47-.78.78-.21.31-.38.66-.52,1.04-.13.35-.18.75-.19,1.18l-.02.02v.21l.02.02c.01.43.06.84.19,1.18.14.38.32.73.52,1.04.21.31.47.57.78.78.31.21.66.38,1.05.52.34.13.75.18,1.18.19l.02.02h.21l.02-.02c.43-.01.83-.06,1.18-.19.38-.14.73-.31,1.05-.52.31-.21.57-.47.78-.78.21-.31.38-.66.52-1.04.13-.35.18-.75.19-1.18l.02-.02v-.21l-.02-.02c-.01-.43-.06-.83-.19-1.18Z"/>
    <path class="cls-1" d="M581.46,63.12c-.14-.38-.31-.73-.52-1.05-.21-.31-.47-.57-.78-.78-.31-.21-.66-.38-1.04-.52-.35-.13-.75-.18-1.18-.19l-.02-.02h-.21l-.02.02c-.43.01-.84.06-1.18.19-.38.14-.73.31-1.04.52-.32.21-.58.47-.78.78-.21.31-.38.66-.52,1.05-.13.35-.18.75-.19,1.18l-.02.02v.21l.02.02c.01.43.06.84.19,1.18.14.38.31.73.52,1.04.21.31.47.58.78.78.31.21.66.38,1.04.52.34.13.75.18,1.18.19l.02.02h.21l.02-.02c.43-.01.83-.06,1.18-.19.38-.14.73-.31,1.04-.52.31-.21.58-.47.78-.78.21-.31.38-.66.52-1.04.12-.35.18-.75.19-1.18l.02-.02v-.21l-.02-.02c-.01-.43-.06-.84-.19-1.18Z"/>
    <path class="cls-1" d="M581.46,42.22c-.14-.38-.31-.73-.52-1.04-.21-.31-.47-.58-.78-.78-.31-.21-.66-.38-1.04-.52-.35-.12-.75-.18-1.18-.19l-.02-.02h-.21l-.02.02c-.43.01-.84.06-1.18.19-.38.14-.73.31-1.04.52-.32.21-.58.47-.78.78-.21.31-.38.66-.52,1.04-.13.35-.18.75-.19,1.18l-.02.02v.21l.02.02c.01.43.06.84.19,1.18.14.38.31.73.52,1.04.21.31.47.57.78.78.31.21.66.38,1.04.52.34.13.75.18,1.18.19l.02.02h.21l.02-.02c.43-.01.83-.06,1.18-.19.38-.14.73-.31,1.04-.52.31-.21.58-.47.78-.78.21-.31.38-.66.52-1.04.12-.35.18-.75.19-1.18l.02-.02v-.21l-.02-.02c-.01-.43-.06-.83-.19-1.18Z"/>
    <path class="cls-1" d="M560.57,52.67c-.14-.38-.31-.73-.52-1.05-.21-.31-.47-.57-.78-.78-.31-.21-.66-.38-1.05-.52-.35-.13-.75-.18-1.18-.19l-.02-.02h-.21l-.02.02c-.43.01-.84.06-1.18.19-.38.14-.73.31-1.04.52-.31.21-.57.47-.78.78-.21.31-.38.66-.52,1.05-.13.35-.18.75-.19,1.18l-.02.02v.21l.02.02c.01.43.06.84.19,1.18.14.38.31.73.52,1.05.21.31.47.57.78.78.31.21.66.38,1.04.52.35.13.75.18,1.18.19l.02.02h.21l.02-.02c.43-.01.83-.06,1.18-.19.38-.14.73-.31,1.05-.52.31-.21.57-.47.78-.78.21-.31.38-.66.52-1.05.12-.35.18-.75.19-1.18l.02-.02v-.21l-.02-.02c-.01-.43-.07-.83-.19-1.18Z"/>
    <path class="cls-1" d="M550.12,63.12c-.14-.38-.32-.73-.52-1.05-.21-.31-.47-.57-.78-.78-.31-.21-.66-.38-1.04-.52-.35-.13-.75-.18-1.18-.19l-.02-.02h-.21l-.02.02c-.43.01-.84.06-1.18.19-.38.14-.73.31-1.04.52-.31.21-.57.47-.78.78-.21.31-.39.66-.52,1.05-.13.35-.18.75-.19,1.18l-.02.02v.21l.02.02c.01.43.06.84.19,1.18.14.38.32.73.52,1.04.21.31.47.58.78.78.31.21.66.38,1.04.52.35.13.75.18,1.18.19l.02.02h.21l.02-.02c.43-.01.84-.06,1.18-.19.38-.14.73-.31,1.04-.52.31-.21.58-.47.78-.78.21-.31.38-.66.52-1.04.12-.35.18-.75.19-1.18l.02-.02v-.21l-.02-.02c-.01-.43-.06-.83-.19-1.18Z"/>
    <path class="cls-1" d="M550.12,52.67c-.14-.38-.32-.73-.52-1.05-.21-.31-.47-.57-.78-.78-.31-.21-.66-.38-1.04-.52-.35-.13-.75-.18-1.18-.19l-.02-.02h-.21l-.02.02c-.43.01-.84.06-1.18.19-.38.14-.73.31-1.04.52-.31.21-.57.47-.78.78-.21.31-.39.66-.52,1.05-.13.35-.18.75-.19,1.18l-.02.02v.21l.02.02c.01.43.06.84.19,1.18.14.38.32.73.52,1.05.21.31.47.57.78.78.31.21.66.38,1.04.52.35.13.75.18,1.18.19l.02.02h.21l.02-.02c.43-.01.84-.06,1.18-.19.38-.14.73-.31,1.04-.52.31-.21.58-.47.78-.78.21-.31.38-.66.52-1.05.12-.35.18-.75.19-1.18l.02-.02v-.21l-.02-.02c-.01-.43-.06-.83-.19-1.18Z"/>
    <path class="cls-1" d="M550.12,73.56c-.14-.38-.32-.73-.52-1.04-.21-.31-.47-.57-.78-.78-.31-.21-.66-.38-1.04-.52-.35-.13-.75-.18-1.18-.19l-.02-.02h-.21l-.02.02c-.43.01-.84.06-1.18.19-.38.14-.73.31-1.04.52-.31.21-.57.47-.78.78-.21.31-.39.66-.52,1.04-.13.35-.18.75-.19,1.18l-.02.02v.21l.02.02c.01.43.06.84.19,1.18.14.38.32.73.52,1.04.21.31.47.58.78.78.31.21.66.38,1.04.52.35.13.75.18,1.18.19l.02.02h.21l.02-.02c.43-.01.84-.06,1.18-.19.38-.14.73-.31,1.04-.52.31-.21.58-.47.78-.78.21-.31.38-.66.52-1.04.12-.35.18-.75.19-1.18l.02-.02v-.21l-.02-.02c-.01-.43-.06-.83-.19-1.18Z"/>
    <path class="cls-1" d="M560.57,63.12c-.14-.38-.31-.73-.52-1.05-.21-.31-.47-.57-.78-.78-.31-.21-.66-.38-1.05-.52-.35-.13-.75-.18-1.18-.19l-.02-.02h-.21l-.02.02c-.43.01-.84.06-1.18.19-.38.14-.73.31-1.04.52-.31.21-.57.47-.78.78-.21.31-.38.66-.52,1.05-.13.35-.18.75-.19,1.18l-.02.02v.21l.02.02c.01.43.06.84.19,1.18.14.38.31.73.52,1.04.21.31.47.58.78.78.31.21.66.38,1.04.52.35.13.75.18,1.18.19l.02.02h.21l.02-.02c.43-.01.83-.06,1.18-.19.38-.14.73-.31,1.05-.52.31-.21.57-.47.78-.78.21-.31.38-.66.52-1.04.12-.35.18-.75.19-1.18l.02-.02v-.21l-.02-.02c-.01-.43-.07-.84-.19-1.18Z"/>
    <path class="cls-1" d="M550.12,84.01c-.14-.38-.32-.73-.52-1.04-.21-.31-.47-.58-.78-.78-.31-.21-.66-.38-1.04-.52-.35-.13-.75-.18-1.18-.19l-.02-.02h-.21l-.02.02c-.43.01-.84.06-1.18.19-.38.14-.73.31-1.04.52-.31.21-.57.47-.78.78-.21.31-.39.66-.52,1.04-.13.35-.18.75-.19,1.18l-.02.02v.21l.02.02c.01.43.06.84.19,1.18.14.38.32.73.52,1.04.21.31.47.57.78.78.31.21.66.38,1.04.52.35.13.75.18,1.18.19l.02.02h.21l.02-.02c.43-.01.84-.06,1.18-.19.38-.14.73-.31,1.04-.52.31-.21.58-.47.78-.78s.38-.66.52-1.04c.12-.35.18-.75.19-1.18l.02-.02v-.21l-.02-.02c-.01-.43-.06-.83-.19-1.18Z"/>
    <path class="cls-1" d="M550.12,94.46c-.14-.38-.32-.73-.52-1.04-.21-.31-.47-.58-.78-.78-.31-.21-.66-.38-1.04-.52-.35-.13-.75-.18-1.18-.19l-.02-.02h-.21l-.02.02c-.43.01-.84.06-1.18.19-.38.14-.73.31-1.04.52-.31.21-.57.47-.78.78-.21.31-.39.66-.52,1.04-.13.35-.18.75-.19,1.18l-.02.02v.21l.02.02c.01.43.06.84.19,1.18.14.38.32.73.52,1.05.21.31.47.57.78.78.31.21.66.38,1.04.52.35.13.75.18,1.18.19l.02.02h.21l.02-.02c.43-.01.84-.06,1.18-.19.38-.14.73-.31,1.04-.52.31-.21.58-.47.78-.78.21-.31.38-.66.52-1.05.12-.35.18-.75.19-1.18l.02-.02v-.21l-.02-.02c-.01-.43-.06-.83-.19-1.18Z"/>
    <path class="cls-1" d="M550.12,42.22c-.14-.38-.32-.73-.52-1.04-.21-.31-.47-.58-.78-.78-.31-.21-.66-.38-1.04-.52-.35-.12-.75-.18-1.18-.19l-.02-.02h-.21l-.02.02c-.43.01-.84.06-1.18.19-.38.14-.73.31-1.04.52-.31.21-.57.47-.78.78-.21.31-.39.66-.52,1.04-.13.35-.18.75-.19,1.18l-.02.02v.21l.02.02c.01.43.06.84.19,1.18.14.38.32.73.52,1.04.21.31.47.57.78.78.31.21.66.38,1.04.52.35.13.75.18,1.18.19l.02.02h.21l.02-.02c.43-.01.84-.06,1.18-.19.38-.14.73-.31,1.04-.52.31-.21.58-.47.78-.78s.38-.66.52-1.04c.12-.35.18-.75.19-1.18l.02-.02v-.21l-.02-.02c-.01-.43-.06-.83-.19-1.18Z"/>
    <path class="cls-1" d="M560.57,73.56c-.14-.38-.31-.73-.52-1.04-.21-.31-.47-.57-.78-.78-.31-.21-.66-.38-1.05-.52-.35-.13-.75-.18-1.18-.19l-.02-.02h-.21l-.02.02c-.43.01-.84.06-1.18.19-.38.14-.73.31-1.04.52-.31.21-.57.47-.78.78-.21.31-.38.66-.52,1.04-.13.35-.18.75-.19,1.18l-.02.02v.21l.02.02c.01.43.06.84.19,1.18.14.38.31.73.52,1.04.21.31.47.58.78.78.31.21.66.38,1.04.52.35.13.75.18,1.18.19l.02.02h.21l.02-.02c.43-.01.83-.06,1.18-.19.38-.14.73-.31,1.05-.52.31-.21.57-.47.78-.78.21-.31.38-.66.52-1.04.12-.35.18-.75.19-1.18l.02-.02v-.21l-.02-.02c-.01-.43-.07-.84-.19-1.18Z"/>
    <path class="cls-1" d="M560.57,94.46c-.14-.38-.31-.73-.52-1.04-.21-.31-.47-.58-.78-.78-.31-.21-.66-.38-1.05-.52-.35-.13-.75-.18-1.18-.19l-.02-.02h-.21l-.02.02c-.43.01-.84.06-1.18.19-.38.14-.73.31-1.04.52-.31.21-.57.47-.78.78-.21.31-.38.66-.52,1.04-.13.35-.18.75-.19,1.18l-.02.02v.21l.02.02c.01.43.06.84.19,1.18.14.38.31.73.52,1.05.21.31.47.57.78.78.31.21.66.38,1.04.52.35.13.75.18,1.18.19l.02.02h.21l.02-.02c.43-.01.83-.06,1.18-.19.38-.14.73-.31,1.05-.52.31-.21.57-.47.78-.78.21-.31.38-.66.52-1.05.12-.35.18-.75.19-1.18l.02-.02v-.21l-.02-.02c-.01-.43-.07-.83-.19-1.18Z"/>
    <path class="cls-1" d="M560.57,84.01c-.14-.38-.31-.73-.52-1.04-.21-.31-.47-.58-.78-.78-.31-.21-.66-.38-1.05-.52-.35-.13-.75-.18-1.18-.19l-.02-.02h-.21l-.02.02c-.43.01-.84.06-1.18.19-.38.14-.73.31-1.04.52-.31.21-.57.47-.78.78-.21.31-.38.66-.52,1.04-.13.35-.18.75-.19,1.18l-.02.02v.21l.02.02c.01.43.06.84.19,1.18.14.38.31.73.52,1.04.21.31.47.57.78.78.31.21.66.38,1.04.52.35.13.75.18,1.18.19l.02.02h.21l.02-.02c.43-.01.83-.06,1.18-.19.38-.14.73-.31,1.05-.52.31-.21.57-.47.78-.78.21-.31.38-.66.52-1.04.12-.35.18-.75.19-1.18l.02-.02v-.21l-.02-.02c-.01-.43-.07-.83-.19-1.18Z"/>
    <path class="cls-1" d="M638.92,73.56c-.14-.38-.31-.73-.52-1.04-.21-.31-.47-.57-.78-.78-.31-.21-.66-.38-1.04-.52-.35-.13-.75-.18-1.18-.19l-.02-.02h-.21l-.02.02c-.43.01-.84.06-1.18.19-.38.14-.73.31-1.05.52-.31.21-.57.47-.78.78-.21.31-.38.66-.52,1.04-.13.35-.18.75-.19,1.18l-.02.02v.21l.02.02c.01.43.06.84.19,1.18.14.38.31.73.52,1.04.21.31.47.58.78.78.31.21.66.38,1.05.52.35.13.75.18,1.18.19l.02.02h.21l.02-.02c.43-.01.84-.06,1.18-.19.38-.14.73-.31,1.04-.52.32-.21.57-.47.78-.78.21-.31.38-.66.52-1.04.13-.35.18-.75.19-1.18l.02-.02v-.21l-.02-.02c-.01-.43-.06-.83-.19-1.18Z"/>
    <path class="cls-1" d="M638.92,63.12c-.14-.38-.31-.73-.52-1.05-.21-.31-.47-.57-.78-.78-.31-.21-.66-.38-1.04-.52-.35-.13-.75-.18-1.18-.19l-.02-.02h-.21l-.02.02c-.43.01-.84.06-1.18.19-.38.14-.73.31-1.05.52-.31.21-.57.47-.78.78-.21.31-.38.66-.52,1.05-.13.35-.18.75-.19,1.18l-.02.02v.21l.02.02c.01.43.06.84.19,1.18.14.38.31.73.52,1.04.21.31.47.58.78.78.31.21.66.38,1.05.52.35.13.75.18,1.18.19l.02.02h.21l.02-.02c.43-.01.84-.06,1.19-.19.38-.14.73-.31,1.04-.52.32-.21.57-.47.78-.78.21-.31.38-.66.52-1.04.13-.35.18-.75.19-1.18l.02-.02v-.21l-.02-.02c-.01-.43-.06-.83-.19-1.18Z"/>
    <path class="cls-1" d="M638.92,84.01c-.14-.38-.31-.73-.52-1.04-.21-.31-.47-.58-.78-.78-.31-.21-.66-.38-1.04-.52-.35-.13-.75-.18-1.18-.19l-.02-.02h-.21l-.02.02c-.43.01-.84.06-1.18.19-.38.14-.73.31-1.05.52-.31.21-.57.47-.78.78-.21.31-.38.66-.52,1.04-.13.35-.18.75-.19,1.18l-.02.02v.21l.02.02c.01.43.06.84.19,1.18.14.38.31.73.52,1.04.21.31.47.57.78.78.31.21.66.38,1.05.52.35.13.75.18,1.18.19l.02.02h.21l.02-.02c.43-.01.84-.06,1.18-.19.38-.14.73-.31,1.04-.52.32-.21.57-.47.78-.78.21-.31.38-.66.52-1.04.13-.35.18-.75.19-1.18l.02-.02v-.21l-.02-.02c-.01-.43-.06-.83-.19-1.18Z"/>
    <path class="cls-1" d="M628.47,42.22c-.14-.38-.31-.73-.52-1.04-.21-.31-.47-.58-.78-.78-.31-.21-.66-.38-1.05-.52-.35-.12-.75-.18-1.18-.19l-.02-.02h-.21l-.02.02c-.43.01-.84.06-1.18.19-.38.14-.73.31-1.04.52-.32.21-.57.47-.78.78-.21.31-.38.66-.52,1.04-.13.35-.18.75-.19,1.18l-.02.02v.21l.02.02c.01.43.06.84.19,1.18.14.38.31.73.52,1.04.21.31.47.57.78.78.31.21.66.38,1.04.52.35.13.75.18,1.18.19l.02.02h.21l.02-.02c.43-.01.83-.06,1.18-.19.38-.14.73-.31,1.05-.52.31-.21.57-.47.78-.78s.38-.66.52-1.04c.12-.35.18-.75.19-1.18l.02-.02v-.21l-.02-.02c-.01-.43-.07-.83-.19-1.18Z"/>
    <path class="cls-1" d="M649.37,52.67c-.14-.38-.32-.73-.52-1.05-.21-.31-.47-.57-.78-.78-.31-.21-.66-.38-1.05-.52-.35-.13-.75-.18-1.18-.19l-.02-.02h-.21l-.02.02c-.43.01-.84.06-1.18.19-.38.14-.73.31-1.04.52-.32.21-.58.47-.78.78-.21.31-.39.66-.52,1.05-.13.35-.18.75-.19,1.18l-.02.02v.21l.02.02c.01.43.06.84.19,1.18.14.38.31.73.52,1.05.21.31.47.57.78.78.31.21.66.38,1.04.52.35.13.75.18,1.18.19l.02.02h.21l.02-.02c.43-.01.83-.06,1.18-.19.38-.14.73-.31,1.05-.52.31-.21.57-.47.78-.78.21-.31.38-.66.52-1.05.12-.35.18-.75.19-1.18l.02-.02v-.21l-.02-.02c-.01-.43-.06-.83-.19-1.18Z"/>
    <path class="cls-1" d="M659.81,73.56c-.14-.38-.31-.73-.52-1.04-.21-.31-.47-.57-.78-.78-.32-.21-.66-.38-1.05-.52-.35-.13-.75-.18-1.18-.19l-.02-.02h-.21l-.02.02c-.43.01-.83.06-1.18.19-.38.14-.73.31-1.05.52-.31.21-.57.47-.78.78-.21.31-.38.66-.52,1.04-.13.35-.18.75-.19,1.18l-.02.02v.21l.02.02c.01.43.06.84.19,1.18.14.38.32.73.52,1.04.21.31.47.58.78.78.31.21.66.38,1.05.52.35.13.75.18,1.18.19l.02.02h.21l.02-.02c.43-.01.83-.06,1.18-.19.38-.14.73-.31,1.05-.52.31-.21.57-.47.78-.78.21-.31.38-.66.52-1.04.13-.35.18-.75.19-1.18l.02-.02v-.21l-.02-.02c-.01-.43-.06-.83-.19-1.18Z"/>
    <path class="cls-1" d="M659.81,42.22c-.14-.38-.31-.73-.52-1.04-.21-.31-.47-.58-.78-.78-.32-.21-.66-.38-1.05-.52-.35-.12-.75-.18-1.18-.19l-.02-.02h-.21l-.02.02c-.43.01-.83.06-1.18.19-.38.14-.73.31-1.05.52-.31.21-.57.47-.78.78-.21.31-.38.66-.52,1.04-.13.35-.18.75-.19,1.18l-.02.02v.21l.02.02c.01.43.06.84.19,1.18.14.38.32.73.52,1.04.21.31.47.57.78.78.31.21.66.38,1.05.52.35.13.75.18,1.18.19l.02.02h.21l.02-.02c.43-.01.83-.06,1.18-.19.38-.14.73-.31,1.05-.52.31-.21.57-.47.78-.78.21-.31.38-.66.52-1.04.13-.35.18-.75.19-1.18l.02-.02v-.21l-.02-.02c-.01-.43-.06-.83-.19-1.18Z"/>
    <path class="cls-1" d="M659.81,84.01c-.14-.38-.31-.73-.52-1.04-.21-.31-.47-.58-.78-.78-.32-.21-.66-.38-1.05-.52-.35-.13-.75-.18-1.18-.19l-.02-.02h-.21l-.02.02c-.43.01-.83.06-1.18.19-.38.14-.73.31-1.05.52-.31.21-.57.47-.78.78-.21.31-.38.66-.52,1.04-.13.35-.18.75-.19,1.18l-.02.02v.21l.02.02c.01.43.06.84.19,1.18.14.38.32.73.52,1.04.21.31.47.57.78.78.31.21.66.38,1.05.52.35.13.75.18,1.18.19l.02.02h.21l.02-.02c.43-.01.83-.06,1.18-.19.38-.14.73-.31,1.05-.52.31-.21.57-.47.78-.78.21-.31.38-.66.52-1.04.13-.35.18-.75.19-1.18l.02-.02v-.21l-.02-.02c-.01-.43-.06-.83-.19-1.18Z"/>
    <path class="cls-1" d="M659.81,94.46c-.14-.38-.31-.73-.52-1.04-.21-.31-.47-.58-.78-.78-.32-.21-.66-.38-1.05-.52-.35-.13-.75-.18-1.18-.19l-.02-.02h-.21l-.02.02c-.43.01-.83.06-1.18.19-.38.14-.73.31-1.05.52-.31.21-.57.47-.78.78-.21.31-.38.66-.52,1.04-.13.35-.18.75-.19,1.18l-.02.02v.21l.02.02c.01.43.06.84.19,1.18.14.38.32.73.52,1.05.21.31.47.57.78.78.31.21.66.38,1.05.52.35.13.75.18,1.18.19l.02.02h.21l.02-.02c.43-.01.83-.06,1.18-.19.38-.14.73-.31,1.05-.52.31-.21.57-.47.78-.78.21-.31.38-.66.52-1.05.13-.35.18-.75.19-1.18l.02-.02v-.21l-.02-.02c-.01-.43-.06-.83-.19-1.18Z"/>
    <path class="cls-1" d="M659.81,52.67c-.14-.38-.31-.73-.52-1.05-.21-.31-.47-.57-.78-.78-.32-.21-.66-.38-1.05-.52-.35-.13-.75-.18-1.18-.19l-.02-.02h-.21l-.02.02c-.43.01-.83.06-1.18.19-.38.14-.73.31-1.05.52-.31.21-.57.47-.78.78-.21.31-.38.66-.52,1.05-.13.35-.18.75-.19,1.18l-.02.02v.21l.02.02c.01.43.06.84.19,1.18.14.38.32.73.52,1.05.21.31.47.57.78.78.31.21.66.38,1.05.52.35.13.75.18,1.18.19l.02.02h.21l.02-.02c.43-.01.83-.06,1.18-.19.38-.14.73-.31,1.05-.52.31-.21.57-.47.78-.78.21-.31.38-.66.52-1.05.13-.35.18-.75.19-1.18l.02-.02v-.21l-.02-.02c-.01-.43-.06-.83-.19-1.18Z"/>
    <path class="cls-1" d="M618.02,94.46c-.14-.38-.32-.73-.52-1.04-.21-.31-.47-.58-.78-.78-.31-.21-.66-.38-1.04-.52-.35-.13-.75-.18-1.18-.19l-.02-.02h-.21l-.02.02c-.43.01-.84.06-1.18.19-.38.14-.73.31-1.05.52-.31.21-.57.47-.78.78-.21.31-.38.66-.52,1.04-.13.35-.18.75-.19,1.18l-.02.02v.21l.02.02c.01.43.06.84.19,1.18.14.38.32.73.52,1.05.21.31.47.57.78.78.31.21.66.38,1.05.52.35.13.75.18,1.18.19l.02.02h.21l.02-.02c.43-.01.84-.06,1.18-.19.38-.14.73-.31,1.04-.52.32-.21.58-.47.78-.78.21-.31.38-.66.52-1.05.12-.35.18-.75.19-1.18l.02-.02v-.21l-.02-.02c-.01-.43-.06-.83-.19-1.18Z"/>
    <path class="cls-1" d="M618.02,84.01c-.14-.38-.32-.73-.52-1.04-.21-.31-.47-.58-.78-.78-.31-.21-.66-.38-1.04-.52-.35-.13-.75-.18-1.18-.19l-.02-.02h-.21l-.02.02c-.43.01-.84.06-1.18.19-.38.14-.73.31-1.05.52-.31.21-.57.47-.78.78-.21.31-.38.66-.52,1.04-.13.35-.18.75-.19,1.18l-.02.02v.21l.02.02c.01.43.06.84.19,1.18.14.38.32.73.52,1.04.21.31.47.57.78.78.31.21.66.38,1.05.52.35.13.75.18,1.18.19l.02.02h.21l.02-.02c.43-.01.84-.06,1.18-.19.38-.14.73-.31,1.04-.52.32-.21.58-.47.78-.78s.38-.66.52-1.04c.12-.35.18-.75.19-1.18l.02-.02v-.21l-.02-.02c-.01-.43-.06-.83-.19-1.18Z"/>
    <path class="cls-1" d="M659.81,63.12c-.14-.38-.31-.73-.52-1.05-.21-.31-.47-.57-.78-.78-.32-.21-.66-.38-1.05-.52-.35-.13-.75-.18-1.18-.19l-.02-.02h-.21l-.02.02c-.43.01-.83.06-1.18.19-.38.14-.73.31-1.05.52-.31.21-.57.47-.78.78-.21.31-.38.66-.52,1.05-.13.35-.18.75-.19,1.18l-.02.02v.21l.02.02c.01.43.06.84.19,1.18.14.38.32.73.52,1.04.21.31.47.58.78.78.31.21.66.38,1.05.52.35.13.75.18,1.18.19l.02.02h.21l.02-.02c.43-.01.83-.06,1.18-.19.38-.14.73-.31,1.05-.52.31-.21.57-.47.78-.78.21-.31.38-.66.52-1.04.13-.35.18-.75.19-1.18l.02-.02v-.21l-.02-.02c-.01-.43-.06-.83-.19-1.18Z"/>
    <path class="cls-1" d="M628.47,52.67c-.14-.38-.31-.73-.52-1.05-.21-.31-.47-.57-.78-.78-.31-.21-.66-.38-1.05-.52-.35-.13-.75-.18-1.18-.19l-.02-.02h-.21l-.02.02c-.43.01-.84.06-1.18.19-.38.14-.73.31-1.04.52-.32.21-.57.47-.78.78-.21.31-.38.66-.52,1.05-.13.35-.18.75-.19,1.18l-.02.02v.21l.02.02c.01.43.06.84.19,1.18.14.38.31.73.52,1.05.21.31.47.57.78.78.31.21.66.38,1.04.52.35.13.75.18,1.18.19l.02.02h.21l.02-.02c.43-.01.83-.06,1.18-.19.38-.14.73-.31,1.05-.52.31-.21.57-.47.78-.78.21-.31.38-.66.52-1.05.12-.35.18-.75.19-1.18l.02-.02v-.21l-.02-.02c-.01-.43-.07-.83-.19-1.18Z"/>
    <path class="cls-1" d="M618.02,73.56c-.14-.38-.32-.73-.52-1.04-.21-.31-.47-.57-.78-.78-.31-.21-.66-.38-1.04-.52-.35-.13-.75-.18-1.18-.19l-.02-.02h-.21l-.02.02c-.43.01-.84.06-1.18.19-.38.14-.73.31-1.05.52-.31.21-.57.47-.78.78-.21.31-.38.66-.52,1.04-.13.35-.18.75-.19,1.18l-.02.02v.21l.02.02c.01.43.06.84.19,1.18.14.38.32.73.52,1.04.21.31.47.58.78.78.31.21.66.38,1.05.52.35.13.75.18,1.18.19l.02.02h.21l.02-.02c.43-.01.84-.06,1.18-.19.38-.14.73-.31,1.04-.52.32-.21.58-.47.78-.78.21-.31.38-.66.52-1.04.12-.35.18-.75.19-1.18l.02-.02v-.21l-.02-.02c-.01-.43-.06-.83-.19-1.18Z"/>
    <path class="cls-1" d="M628.47,63.12c-.14-.38-.31-.73-.52-1.05-.21-.31-.47-.57-.78-.78-.31-.21-.66-.38-1.05-.52-.35-.13-.75-.18-1.18-.19l-.02-.02h-.21l-.02.02c-.43.01-.84.06-1.18.19-.38.14-.73.31-1.04.52-.32.21-.57.47-.78.78-.21.31-.38.66-.52,1.05-.13.35-.18.75-.19,1.18l-.02.02v.21l.02.02c.01.43.06.84.19,1.18.14.38.31.73.52,1.04.21.31.47.58.78.78.31.21.66.38,1.04.52.35.13.75.18,1.18.19l.02.02h.21l.02-.02c.43-.01.83-.06,1.18-.19.38-.14.73-.31,1.05-.52.31-.21.57-.47.78-.78.21-.31.38-.66.52-1.04.12-.35.18-.75.19-1.18l.02-.02v-.21l-.02-.02c-.01-.43-.07-.84-.19-1.18Z"/>
    <path class="cls-1" d="M618.02,42.22c-.14-.38-.32-.73-.52-1.04-.21-.31-.47-.58-.78-.78-.31-.21-.66-.38-1.04-.52-.35-.12-.75-.18-1.18-.19l-.02-.02h-.21l-.02.02c-.43.01-.84.06-1.18.19-.38.14-.73.31-1.05.52-.31.21-.57.47-.78.78-.21.31-.38.66-.52,1.04-.13.35-.18.75-.19,1.18l-.02.02v.21l.02.02c.01.43.06.84.19,1.18.14.38.32.73.52,1.04.21.31.47.57.78.78.31.21.66.38,1.05.52.35.13.75.18,1.18.19l.02.02h.21l.02-.02c.43-.01.84-.06,1.18-.19.38-.14.73-.31,1.04-.52.32-.21.58-.47.78-.78s.38-.66.52-1.04c.12-.35.18-.75.19-1.18l.02-.02v-.21l-.02-.02c-.01-.43-.06-.83-.19-1.18Z"/>
    <path class="cls-1" d="M618.02,52.67c-.14-.38-.32-.73-.52-1.05-.21-.31-.47-.57-.78-.78-.31-.21-.66-.38-1.04-.52-.35-.13-.75-.18-1.18-.19l-.02-.02h-.21l-.02.02c-.43.01-.84.06-1.18.19-.38.14-.73.31-1.05.52-.31.21-.57.47-.78.78-.21.31-.38.66-.52,1.05-.13.35-.18.75-.19,1.18l-.02.02v.21l.02.02c.01.43.06.84.19,1.18.14.38.32.73.52,1.05.21.31.47.57.78.78.31.21.66.38,1.05.52.35.13.75.18,1.18.19l.02.02h.21l.02-.02c.43-.01.84-.06,1.18-.19.38-.14.73-.31,1.04-.52.32-.21.58-.47.78-.78.21-.31.38-.66.52-1.05.12-.35.18-.75.19-1.18l.02-.02v-.21l-.02-.02c-.01-.43-.06-.83-.19-1.18Z"/>
    <path class="cls-1" d="M618.02,63.12c-.14-.38-.32-.73-.52-1.05-.21-.31-.47-.57-.78-.78-.31-.21-.66-.38-1.04-.52-.35-.13-.75-.18-1.18-.19l-.02-.02h-.21l-.02.02c-.43.01-.84.06-1.18.19-.38.14-.73.31-1.05.52-.31.21-.57.47-.78.78-.21.31-.38.66-.52,1.05-.13.35-.18.75-.19,1.18l-.02.02v.21l.02.02c.01.43.06.84.19,1.18.14.38.32.73.52,1.04.21.31.47.58.78.78.31.21.66.38,1.05.52.35.13.75.18,1.18.19l.02.02h.21l.02-.02c.43-.01.84-.06,1.18-.19.38-.14.73-.31,1.04-.52.32-.21.58-.47.78-.78.21-.31.38-.66.52-1.04.12-.35.18-.75.19-1.18l.02-.02v-.21l-.02-.02c-.01-.43-.06-.83-.19-1.18Z"/>
    <path class="cls-1" d="M727.72,73.56c-.14-.38-.31-.73-.52-1.04-.21-.31-.47-.57-.78-.78-.31-.21-.66-.38-1.04-.52-.35-.13-.75-.18-1.18-.19l-.02-.02h-.21l-.02.02c-.43.01-.84.06-1.18.19-.38.14-.73.31-1.04.52-.31.21-.57.47-.78.78-.21.31-.38.66-.52,1.04-.13.35-.18.75-.19,1.18l-.02.02v.21l.02.02c.01.43.06.84.19,1.18.14.38.31.73.52,1.04.21.31.47.58.78.78.31.21.66.38,1.04.52.34.13.75.18,1.18.19l.02.02h.21l.02-.02c.43-.01.83-.06,1.18-.19.38-.14.73-.31,1.04-.52.31-.21.58-.47.78-.78.21-.31.38-.66.52-1.04.13-.35.18-.75.19-1.18l.02-.02v-.21l-.02-.02c-.01-.43-.06-.83-.19-1.18Z"/>
    <path class="cls-1" d="M717.27,84.01c-.14-.38-.32-.73-.52-1.04-.21-.31-.47-.58-.78-.78-.32-.21-.66-.38-1.04-.52-.35-.13-.75-.18-1.18-.19l-.02-.02h-.21l-.02.02c-.43.01-.84.06-1.18.19-.38.14-.73.31-1.04.52-.31.21-.58.47-.78.78-.21.31-.38.66-.52,1.04-.13.35-.18.75-.19,1.18l-.02.02v.21l.02.02c.01.43.06.84.19,1.18.14.38.31.73.52,1.04.21.31.47.57.78.78.31.21.66.38,1.04.52.35.13.75.18,1.18.19l.02.02h.21l.02-.02c.43-.01.84-.06,1.18-.19.38-.14.73-.31,1.04-.52.31-.21.57-.47.78-.78s.38-.66.52-1.04c.12-.35.18-.75.19-1.18l.02-.02v-.21l-.02-.02c-.01-.43-.06-.83-.19-1.18Z"/>
    <path class="cls-1" d="M717.27,52.67c-.14-.38-.32-.73-.52-1.05-.21-.31-.47-.57-.78-.78-.32-.21-.66-.38-1.04-.52-.35-.13-.75-.18-1.18-.19l-.02-.02h-.21l-.02.02c-.43.01-.84.06-1.18.19-.38.14-.73.31-1.04.52-.31.21-.58.47-.78.78-.21.31-.38.66-.52,1.05-.13.35-.18.75-.19,1.18l-.02.02v.21l.02.02c.01.43.06.84.19,1.18.14.38.31.73.52,1.05.21.31.47.57.78.78.31.21.66.38,1.04.52.35.13.75.18,1.18.19l.02.02h.21l.02-.02c.43-.01.84-.06,1.18-.19.38-.14.73-.31,1.04-.52.31-.21.57-.47.78-.78.21-.31.38-.66.52-1.05.12-.35.18-.75.19-1.18l.02-.02v-.21l-.02-.02c-.01-.43-.06-.83-.19-1.18Z"/>
    <path class="cls-1" d="M717.27,73.56c-.14-.38-.32-.73-.52-1.04-.21-.31-.47-.57-.78-.78-.32-.21-.66-.38-1.04-.52-.35-.13-.75-.18-1.18-.19l-.02-.02h-.21l-.02.02c-.43.01-.84.06-1.18.19-.38.14-.73.31-1.04.52-.31.21-.58.47-.78.78-.21.31-.38.66-.52,1.04-.13.35-.18.75-.19,1.18l-.02.02v.21l.02.02c.01.43.06.84.19,1.18.14.38.31.73.52,1.04.21.31.47.58.78.78.31.21.66.38,1.04.52.35.13.75.18,1.18.19l.02.02h.21l.02-.02c.43-.01.84-.06,1.18-.19.38-.14.73-.31,1.04-.52.31-.21.57-.47.78-.78.21-.31.38-.66.52-1.04.12-.35.18-.75.19-1.18l.02-.02v-.21l-.02-.02c-.01-.43-.06-.83-.19-1.18Z"/>
    <path class="cls-1" d="M727.72,94.46c-.14-.38-.31-.73-.52-1.04-.21-.31-.47-.58-.78-.78-.31-.21-.66-.38-1.04-.52-.35-.13-.75-.18-1.18-.19l-.02-.02h-.21l-.02.02c-.43.01-.84.06-1.18.19-.38.14-.73.31-1.04.52-.31.21-.57.47-.78.78-.21.31-.38.66-.52,1.04-.13.35-.18.75-.19,1.18l-.02.02v.21l.02.02c.01.43.06.84.19,1.18.14.38.31.73.52,1.05.21.31.47.57.78.78.31.21.66.38,1.04.52.34.13.75.18,1.18.19l.02.02h.21l.02-.02c.43-.01.83-.06,1.18-.19.38-.14.73-.31,1.04-.52.31-.21.58-.47.78-.78.21-.31.38-.66.52-1.05.13-.35.18-.75.19-1.18l.02-.02v-.21l-.02-.02c-.01-.43-.06-.83-.19-1.18Z"/>
    <path class="cls-1" d="M717.27,63.12c-.14-.38-.32-.73-.52-1.05-.21-.31-.47-.57-.78-.78-.32-.21-.66-.38-1.04-.52-.35-.13-.75-.18-1.18-.19l-.02-.02h-.21l-.02.02c-.43.01-.84.06-1.18.19-.38.14-.73.31-1.04.52-.31.21-.58.47-.78.78-.21.31-.38.66-.52,1.05-.13.35-.18.75-.19,1.18l-.02.02v.21l.02.02c.01.43.06.84.19,1.18.14.38.31.73.52,1.04.21.31.47.58.78.78.31.21.66.38,1.04.52.35.13.75.18,1.18.19l.02.02h.21l.02-.02c.43-.01.84-.06,1.18-.19.38-.14.73-.31,1.04-.52.31-.21.57-.47.78-.78.21-.31.38-.66.52-1.04.12-.35.18-.75.19-1.18l.02-.02v-.21l-.02-.02c-.01-.43-.06-.83-.19-1.18Z"/>
    <path class="cls-1" d="M717.27,42.22c-.14-.38-.32-.73-.52-1.04-.21-.31-.47-.58-.78-.78-.32-.21-.66-.38-1.04-.52-.35-.12-.75-.18-1.18-.19l-.02-.02h-.21l-.02.02c-.43.01-.84.06-1.18.19-.38.14-.73.31-1.04.52-.31.21-.58.47-.78.78-.21.31-.38.66-.52,1.04-.13.35-.18.75-.19,1.18l-.02.02v.21l.02.02c.01.43.06.84.19,1.18.14.38.31.73.52,1.04.21.31.47.57.78.78.31.21.66.38,1.04.52.35.13.75.18,1.18.19l.02.02h.21l.02-.02c.43-.01.84-.06,1.18-.19.38-.14.73-.31,1.04-.52.31-.21.57-.47.78-.78s.38-.66.52-1.04c.12-.35.18-.75.19-1.18l.02-.02v-.21l-.02-.02c-.01-.43-.06-.83-.19-1.18Z"/>
    <path class="cls-1" d="M727.72,52.67c-.14-.38-.31-.73-.52-1.05-.21-.31-.47-.57-.78-.78-.31-.21-.66-.38-1.04-.52-.35-.13-.75-.18-1.18-.19l-.02-.02h-.21l-.02.02c-.43.01-.84.06-1.18.19-.38.14-.73.31-1.04.52-.31.21-.57.47-.78.78-.21.31-.38.66-.52,1.05-.13.35-.18.75-.19,1.18l-.02.02v.21l.02.02c.01.43.06.84.19,1.18.14.38.31.73.52,1.05.21.31.47.57.78.78.31.21.66.38,1.04.52.34.13.75.18,1.18.19l.02.02h.21l.02-.02c.43-.01.83-.06,1.18-.19.38-.14.73-.31,1.04-.52.31-.21.58-.47.78-.78.21-.31.38-.66.52-1.05.13-.35.18-.75.19-1.18l.02-.02v-.21l-.02-.02c-.01-.43-.06-.83-.19-1.18Z"/>
    <path class="cls-1" d="M727.72,84.01c-.14-.38-.31-.73-.52-1.04-.21-.31-.47-.58-.78-.78-.31-.21-.66-.38-1.04-.52-.35-.13-.75-.18-1.18-.19l-.02-.02h-.21l-.02.02c-.43.01-.84.06-1.18.19-.38.14-.73.31-1.04.52-.31.21-.57.47-.78.78-.21.31-.38.66-.52,1.04-.13.35-.18.75-.19,1.18l-.02.02v.21l.02.02c.01.43.06.84.19,1.18.14.38.31.73.52,1.04.21.31.47.57.78.78.31.21.66.38,1.04.52.34.13.75.18,1.18.19l.02.02h.21l.02-.02c.43-.01.83-.06,1.18-.19.38-.14.73-.31,1.04-.52.31-.21.58-.47.78-.78s.38-.66.52-1.04c.13-.35.18-.75.19-1.18l.02-.02v-.21l-.02-.02c-.01-.43-.06-.83-.19-1.18Z"/>
    <path class="cls-1" d="M685.93,94.46c-.14-.38-.31-.73-.52-1.04-.21-.31-.47-.58-.78-.78-.31-.21-.66-.38-1.04-.52-.35-.13-.75-.18-1.18-.19l-.02-.02h-.21l-.02.02c-.43.01-.84.06-1.18.19-.38.14-.73.31-1.05.52-.31.21-.57.47-.78.78-.21.31-.38.66-.52,1.04-.13.35-.18.75-.19,1.18l-.02.02v.21l.02.02c.01.43.06.84.19,1.18.14.38.32.73.52,1.05.21.31.47.57.78.78.31.21.66.38,1.05.52.34.13.75.18,1.18.19l.02.02h.21l.02-.02c.43-.01.83-.06,1.18-.19.38-.14.73-.31,1.04-.52.32-.21.58-.47.78-.78.21-.31.38-.66.52-1.05.13-.35.18-.75.19-1.18l.02-.02v-.21l-.02-.02c-.01-.43-.06-.83-.19-1.18Z"/>
    <path class="cls-1" d="M727.72,63.12c-.14-.38-.31-.73-.52-1.05-.21-.31-.47-.57-.78-.78-.31-.21-.66-.38-1.04-.52-.35-.13-.75-.18-1.18-.19l-.02-.02h-.21l-.02.02c-.43.01-.84.06-1.18.19-.38.14-.73.31-1.04.52-.31.21-.57.47-.78.78-.21.31-.38.66-.52,1.05-.13.35-.18.75-.19,1.18l-.02.02v.21l.02.02c.01.43.06.84.19,1.18.14.38.31.73.52,1.04.21.31.47.58.78.78.31.21.66.38,1.04.52.34.13.75.18,1.18.19l.02.02h.21l.02-.02c.43-.01.83-.06,1.18-.19.38-.14.73-.31,1.04-.52.31-.21.58-.47.78-.78.21-.31.38-.66.52-1.04.13-.35.18-.75.19-1.18l.02-.02v-.21l-.02-.02c-.01-.43-.06-.84-.19-1.18Z"/>
    <path class="cls-1" d="M706.82,73.56c-.14-.38-.31-.73-.52-1.04-.21-.31-.47-.57-.78-.78-.31-.21-.66-.38-1.04-.52-.35-.13-.75-.18-1.18-.19l-.02-.02h-.21l-.02.02c-.43.01-.83.06-1.18.19-.38.14-.73.31-1.05.52-.31.21-.57.47-.78.78-.21.31-.38.66-.52,1.04-.13.35-.18.75-.19,1.18l-.02.02v.21l.02.02c.01.43.06.84.19,1.18.14.38.31.73.52,1.04.21.31.47.58.78.78.31.21.66.38,1.05.52.35.13.75.18,1.18.19l.02.02h.21l.02-.02c.43-.01.83-.06,1.18-.19.38-.14.73-.31,1.04-.52.31-.21.57-.47.78-.78.21-.31.38-.66.52-1.04.13-.35.18-.75.19-1.18l.02-.02v-.21l-.02-.02c-.01-.43-.06-.83-.19-1.18Z"/>
    <path class="cls-1" d="M685.93,73.56c-.14-.38-.31-.73-.52-1.04-.21-.31-.47-.57-.78-.78-.31-.21-.66-.38-1.04-.52-.35-.13-.75-.18-1.18-.19l-.02-.02h-.21l-.02.02c-.43.01-.83.06-1.18.19-.38.14-.73.31-1.05.52-.31.21-.57.47-.78.78-.21.31-.38.66-.52,1.04-.13.35-.18.75-.19,1.18l-.02.02v.21l.02.02c.01.43.06.84.19,1.18.14.38.32.73.52,1.04.21.31.47.58.78.78.31.21.66.38,1.05.52.34.13.75.18,1.18.19l.02.02h.21l.02-.02c.43-.01.83-.06,1.18-.19.38-.14.73-.31,1.04-.52.32-.21.58-.47.78-.78.21-.31.38-.66.52-1.04.13-.35.18-.75.19-1.18l.02-.02v-.21l-.02-.02c-.01-.43-.06-.83-.19-1.18Z"/>
    <path class="cls-1" d="M685.93,63.12c-.14-.38-.31-.73-.52-1.05-.21-.31-.47-.57-.78-.78-.31-.21-.66-.38-1.04-.52-.35-.13-.75-.18-1.18-.19l-.02-.02h-.21l-.02.02c-.43.01-.83.06-1.18.19-.38.14-.73.31-1.05.52-.31.21-.57.47-.78.78-.21.31-.38.66-.52,1.05-.13.35-.18.75-.19,1.18l-.02.02v.21l.02.02c.01.43.06.84.19,1.18.14.38.32.73.52,1.04.21.31.47.58.78.78.31.21.66.38,1.05.52.34.13.75.18,1.18.19l.02.02h.21l.02-.02c.43-.01.83-.06,1.18-.19.38-.14.73-.31,1.04-.52.32-.21.58-.47.78-.78.21-.31.38-.66.52-1.04.13-.35.18-.75.19-1.18l.02-.02v-.21l-.02-.02c-.01-.43-.06-.83-.19-1.18Z"/>
    <path class="cls-1" d="M685.93,52.67c-.14-.38-.31-.73-.52-1.05-.21-.31-.47-.57-.78-.78-.31-.21-.66-.38-1.04-.52-.35-.13-.75-.18-1.18-.19l-.02-.02h-.21l-.02.02c-.43.01-.84.06-1.18.19-.38.14-.73.31-1.05.52-.31.21-.57.47-.78.78-.21.31-.38.66-.52,1.05-.13.35-.18.75-.19,1.18l-.02.02v.21l.02.02c.01.43.06.84.19,1.18.14.38.32.73.52,1.05.21.31.47.57.78.78.31.21.66.38,1.05.52.34.13.75.18,1.18.19l.02.02h.21l.02-.02c.43-.01.83-.06,1.18-.19.38-.14.73-.31,1.04-.52.32-.21.58-.47.78-.78.21-.31.38-.66.52-1.05.13-.35.18-.75.19-1.18l.02-.02v-.21l-.02-.02c-.01-.43-.06-.83-.19-1.18Z"/>
    <path class="cls-1" d="M717.27,94.46c-.14-.38-.32-.73-.52-1.04-.21-.31-.47-.58-.78-.78-.32-.21-.66-.38-1.04-.52-.35-.13-.75-.18-1.18-.19l-.02-.02h-.21l-.02.02c-.43.01-.84.06-1.18.19-.38.14-.73.31-1.04.52-.31.21-.58.47-.78.78-.21.31-.38.66-.52,1.04-.13.35-.18.75-.19,1.18l-.02.02v.21l.02.02c.01.43.06.84.19,1.18.14.38.31.73.52,1.05.21.31.47.57.78.78.31.21.66.38,1.04.52.35.13.75.18,1.18.19l.02.02h.21l.02-.02c.43-.01.84-.06,1.18-.19.38-.14.73-.31,1.04-.52.31-.21.57-.47.78-.78.21-.31.38-.66.52-1.05.12-.35.18-.75.19-1.18l.02-.02v-.21l-.02-.02c-.01-.43-.06-.83-.19-1.18Z"/>
    <path class="cls-1" d="M685.93,84.01c-.14-.38-.31-.73-.52-1.04-.21-.31-.47-.58-.78-.78-.31-.21-.66-.38-1.04-.52-.35-.13-.75-.18-1.18-.19l-.02-.02h-.21l-.02.02c-.43.01-.83.06-1.18.19-.38.14-.73.31-1.05.52-.31.21-.57.47-.78.78-.21.31-.38.66-.52,1.04-.13.35-.18.75-.19,1.18l-.02.02v.21l.02.02c.01.43.06.84.19,1.18.14.38.32.73.52,1.04.21.31.47.57.78.78.31.21.66.38,1.05.52.34.13.75.18,1.18.19l.02.02h.21l.02-.02c.43-.01.83-.06,1.18-.19.38-.14.73-.31,1.04-.52.32-.21.58-.47.78-.78.21-.31.38-.66.52-1.04.13-.35.18-.75.19-1.18l.02-.02v-.21l-.02-.02c-.01-.43-.06-.83-.19-1.18Z"/>
    <path class="cls-1" d="M696.37,73.56c-.14-.38-.31-.73-.52-1.04-.21-.31-.47-.57-.78-.78-.31-.21-.66-.38-1.05-.52-.35-.13-.75-.18-1.18-.19l-.02-.02h-.21l-.02.02c-.43.01-.84.06-1.18.19-.38.14-.73.31-1.04.52-.32.21-.57.47-.78.78-.21.31-.39.66-.52,1.04-.13.35-.18.75-.19,1.18l-.02.02v.21l.02.02c.01.43.06.84.19,1.18.14.38.31.73.52,1.04.21.31.47.58.78.78s.66.38,1.04.52c.35.13.75.18,1.18.19l.02.02h.21l.02-.02c.43-.01.84-.06,1.18-.19.38-.14.73-.31,1.05-.52s.57-.47.78-.78c.21-.31.38-.66.52-1.04.12-.35.18-.75.19-1.18l.02-.02v-.21l-.02-.02c-.01-.43-.06-.83-.19-1.18Z"/>
    <path class="cls-1" d="M706.82,42.22c-.14-.38-.31-.73-.52-1.04-.21-.31-.47-.58-.78-.78-.31-.21-.66-.38-1.04-.52-.35-.12-.75-.18-1.18-.19l-.02-.02h-.21l-.02.02c-.43.01-.83.06-1.18.19-.38.14-.73.31-1.05.52-.31.21-.57.47-.78.78-.21.31-.38.66-.52,1.04-.13.35-.18.75-.19,1.18l-.02.02v.21l.02.02c.01.43.06.84.19,1.18.14.38.31.73.52,1.04.21.31.47.57.78.78.31.21.66.38,1.05.52.35.13.75.18,1.18.19l.02.02h.21l.02-.02c.43-.01.83-.06,1.18-.19.38-.14.73-.31,1.04-.52.31-.21.57-.47.78-.78.21-.31.38-.66.52-1.04.13-.35.18-.75.19-1.18l.02-.02v-.21l-.02-.02c-.01-.43-.06-.83-.19-1.18Z"/>
    <path class="cls-1" d="M696.37,42.22c-.14-.38-.31-.73-.52-1.04-.21-.31-.47-.58-.78-.78s-.66-.38-1.05-.52c-.35-.12-.75-.18-1.18-.19l-.02-.02h-.21l-.02.02c-.43.01-.84.06-1.19.19-.38.14-.73.31-1.04.52s-.57.47-.78.78c-.21.31-.39.66-.52,1.04-.13.35-.18.75-.19,1.18l-.02.02v.21l.02.02c.01.43.06.84.19,1.18.14.38.31.73.52,1.04.21.31.47.57.78.78.32.21.66.38,1.04.52.35.13.75.18,1.18.19l.02.02h.21l.02-.02c.43-.01.84-.06,1.18-.19.38-.14.73-.31,1.05-.52.31-.21.57-.47.78-.78.21-.31.38-.66.52-1.04.12-.35.18-.75.19-1.18l.02-.02v-.21l-.02-.02c-.01-.43-.06-.83-.19-1.18Z"/>
  </g>
  <g>
    <path class="cls-1" d="M775.93,73.46c-.1-.17-.26-.33-.47-.47-.21-.14-.42-.24-.63-.31-.21-.07-.45-.1-.73-.1h-.11c-.3.02-.57.04-.78.1-.24.07-.45.18-.63.31-.17.14-.33.3-.47.47-.14.18-.25.38-.32.63-.07.25-.1.51-.1.78,0,.35.03.63.1.84.07.21.16.4.26.57.11.18.26.33.47.47.21.14.4.25.57.31.17.07.43.1.78.1h.1c.3-.02.57-.04.78-.1.24-.07.45-.17.63-.31.17-.14.33-.3.47-.47.14-.17.25-.37.32-.57.07-.21.1-.49.1-.84s-.04-.63-.1-.84c-.07-.21-.16-.4-.26-.57Z"/>
    <path class="cls-1" d="M780.32,42.12c-.1-.17-.26-.33-.47-.47-.21-.14-.42-.24-.63-.31-.21-.07-.45-.11-.73-.11h-.1c-.3.02-.57.04-.78.11-.25.07-.45.17-.63.31-.17.14-.33.3-.47.47-.14.17-.24.38-.31.63-.07.25-.1.51-.1.78,0,.35.03.63.1.84.07.21.16.4.26.57.11.18.26.33.47.47.21.14.4.25.57.31.17.07.43.1.78.1h.1c.3-.02.57-.04.78-.1.24-.07.45-.17.63-.31.17-.14.33-.3.47-.47.14-.17.24-.37.31-.57.07-.21.11-.49.11-.84s-.04-.63-.11-.84c-.07-.21-.16-.4-.26-.57Z"/>
    <path class="cls-1" d="M769.87,42.12c-.1-.17-.26-.33-.47-.47-.21-.14-.42-.24-.63-.31-.21-.07-.45-.11-.73-.11h-.11c-.3.02-.57.04-.78.11-.24.07-.45.17-.63.31-.17.14-.33.3-.47.47-.14.17-.24.38-.31.63-.07.25-.1.51-.1.78,0,.35.03.63.1.84.07.21.16.4.26.57.1.18.26.33.47.47.21.14.4.25.57.31.17.07.43.1.78.1h.1c.3-.02.57-.04.78-.1.24-.07.45-.17.62-.31.17-.14.33-.3.47-.47.14-.17.24-.37.31-.57.07-.21.1-.49.1-.84s-.04-.63-.1-.84c-.07-.21-.16-.4-.26-.57Z"/>
    <path class="cls-1" d="M768.41,52.56c-.1-.17-.26-.33-.47-.47-.21-.14-.42-.24-.62-.31-.21-.07-.45-.11-.73-.11h-.1c-.3.02-.57.04-.78.11-.25.07-.45.17-.63.31-.18.14-.33.3-.47.47-.14.18-.25.38-.32.63-.07.24-.1.51-.1.78,0,.35.03.63.1.84.07.21.16.4.26.58.1.18.26.33.47.47.21.14.4.25.58.31.17.07.43.11.78.11h.11c.3-.02.57-.04.78-.11.24-.07.45-.17.63-.31.17-.14.33-.3.47-.47.14-.17.25-.37.32-.58.07-.21.1-.49.1-.84s-.04-.63-.1-.84c-.07-.21-.16-.4-.26-.58Z"/>
    <path class="cls-1" d="M790.76,42.12c-.1-.17-.26-.33-.47-.47-.21-.14-.42-.24-.63-.31-.21-.07-.45-.11-.73-.11h-.1c-.3.02-.57.04-.78.11-.24.07-.45.17-.62.31-.18.14-.33.3-.47.47-.14.17-.25.38-.31.63-.07.25-.1.51-.1.78,0,.35.04.63.1.84.07.21.16.4.26.57.1.18.26.33.47.47.21.14.4.25.58.31.17.07.43.1.78.1h.1c.3-.02.57-.04.78-.1.24-.07.45-.17.63-.31.17-.14.33-.3.47-.47.14-.17.24-.37.31-.57.07-.21.1-.49.1-.84s-.03-.63-.1-.84c-.07-.21-.16-.4-.26-.57Z"/>
    <path class="cls-1" d="M755.56,44.94c.1.18.26.33.47.47.21.14.4.25.57.31.17.07.44.1.78.1h.11c.3-.02.57-.04.78-.1.25-.07.45-.17.63-.31.17-.14.33-.3.47-.47.14-.17.25-.37.31-.57.07-.21.1-.49.1-.84s-.03-.63-.1-.84c-.07-.21-.16-.4-.26-.57-.11-.17-.26-.33-.47-.47-.21-.14-.42-.24-.63-.31-.21-.07-.45-.11-.73-.11h-.1c-.3.02-.57.04-.78.11-.25.07-.45.17-.63.31-.18.14-.33.3-.47.47-.14.17-.25.38-.31.63-.07.25-.1.51-.1.78,0,.35.03.63.1.84.07.21.16.4.26.57Z"/>
    <path class="cls-1" d="M801.21,42.12c-.1-.17-.26-.33-.47-.47-.21-.14-.42-.24-.63-.31-.21-.07-.45-.11-.73-.11h-.11c-.3.02-.57.04-.78.11-.25.07-.45.17-.63.31-.17.14-.33.3-.47.47-.14.17-.24.38-.31.63-.07.25-.1.51-.1.78,0,.35.03.63.1.84.07.21.16.4.26.57.11.18.26.33.47.47.21.14.4.25.57.31.17.07.43.1.78.1h.1c.3-.02.57-.04.78-.1.25-.07.45-.17.63-.31.18-.14.33-.3.47-.47.14-.17.25-.37.31-.57.07-.21.11-.49.11-.84s-.04-.63-.11-.84c-.07-.21-.16-.4-.26-.57Z"/>
    <path class="cls-1" d="M766.94,63.01c-.1-.17-.26-.33-.47-.47-.21-.14-.42-.24-.63-.31-.21-.07-.46-.1-.73-.1h-.11c-.3.02-.57.04-.78.1-.25.07-.45.17-.63.31-.17.14-.33.3-.47.47-.14.18-.25.38-.32.63-.07.24-.1.51-.1.78,0,.35.03.63.1.84s.16.4.26.58c.11.17.26.33.47.47.21.14.4.24.57.31.17.07.43.11.78.11h.1c.3-.02.57-.04.78-.11.24-.07.45-.17.63-.31.17-.14.33-.3.47-.47.14-.17.24-.37.32-.58.07-.21.1-.49.1-.84s-.04-.63-.1-.84c-.07-.21-.16-.4-.26-.58Z"/>
    <path class="cls-1" d="M786.38,73.46c-.1-.17-.26-.33-.47-.47-.21-.14-.41-.24-.63-.31-.21-.07-.45-.1-.73-.1h-.1c-.3.02-.57.04-.78.1-.25.07-.45.18-.63.31-.18.14-.33.3-.47.47-.14.18-.25.38-.31.63-.07.25-.11.51-.11.78,0,.35.04.63.11.84.07.21.15.4.26.57.1.18.26.33.47.47.21.14.4.25.57.31.17.07.43.1.78.1h.1c.3-.02.57-.04.78-.1.24-.07.45-.17.63-.31.17-.14.33-.3.47-.47.14-.17.24-.37.31-.57.07-.21.1-.49.1-.84s-.03-.63-.1-.84c-.07-.21-.16-.4-.26-.57Z"/>
    <path class="cls-1" d="M755.03,73.46c-.1-.17-.26-.33-.47-.47-.21-.14-.42-.24-.63-.31-.21-.07-.45-.1-.73-.1h-.1c-.3.02-.57.04-.78.1-.24.07-.45.18-.63.31-.17.14-.33.3-.47.47-.14.18-.25.38-.31.63-.07.25-.1.51-.1.78,0,.35.03.63.1.84.07.21.16.4.26.57.11.18.26.33.47.47.21.14.4.25.57.31.17.07.43.1.78.1h.1c.3-.02.57-.04.78-.1.24-.07.45-.17.63-.31.17-.14.33-.3.47-.47.14-.17.24-.37.31-.57.07-.21.1-.49.1-.84s-.04-.63-.1-.84c-.07-.21-.16-.4-.26-.57Z"/>
    <path class="cls-1" d="M753.57,83.91c-.1-.17-.26-.33-.47-.47-.21-.14-.42-.24-.63-.31-.21-.07-.45-.1-.73-.1h-.1c-.3.02-.57.04-.78.1-.24.07-.45.18-.63.31-.18.14-.33.3-.47.47-.14.17-.24.38-.31.63-.07.25-.1.51-.1.78,0,.35.03.63.1.84s.16.4.26.57c.11.18.26.33.47.47.21.14.4.25.57.31.17.07.43.1.78.1h.1c.3-.02.57-.04.78-.1.24-.07.45-.17.62-.31.17-.14.33-.3.47-.47.14-.17.24-.37.31-.57.07-.21.1-.49.1-.84s-.04-.63-.1-.84c-.07-.21-.16-.4-.26-.57Z"/>
    <path class="cls-1" d="M756.5,63.01c-.11-.17-.26-.33-.47-.47-.21-.14-.42-.24-.63-.31-.21-.07-.45-.1-.73-.1h-.1c-.3.02-.57.04-.78.1-.25.07-.45.17-.63.31-.18.14-.33.3-.47.47-.14.18-.25.38-.31.63-.07.24-.1.51-.1.78,0,.35.03.63.1.84.07.21.15.4.26.58.1.17.26.33.47.47.21.14.4.24.57.31.18.07.44.11.78.11h.1c.3-.02.57-.04.78-.11.24-.07.45-.17.63-.31.17-.14.33-.3.47-.47.14-.17.24-.37.31-.58s.1-.49.1-.84-.03-.63-.1-.84c-.07-.21-.16-.4-.26-.58Z"/>
    <path class="cls-1" d="M752.11,94.35c-.1-.17-.26-.33-.47-.47-.21-.14-.42-.24-.63-.31-.21-.07-.45-.11-.73-.11h-.1c-.3.02-.57.04-.78.11-.25.07-.45.18-.63.31-.18.14-.33.3-.47.47-.14.17-.25.38-.31.63-.07.24-.11.51-.11.78,0,.35.04.63.11.84.07.21.15.4.26.58.1.17.26.33.47.47.21.14.4.25.58.31.17.07.43.11.78.11h.11c.3-.02.57-.04.78-.11.25-.07.45-.17.63-.31.17-.14.33-.3.47-.47.13-.17.24-.37.31-.58.07-.21.1-.49.1-.84s-.04-.63-.1-.84c-.07-.21-.16-.4-.26-.58Z"/>
    <path class="cls-1" d="M765.48,73.46c-.1-.17-.26-.33-.47-.47-.21-.14-.41-.24-.63-.31-.21-.07-.45-.1-.73-.1h-.1c-.3.02-.57.04-.78.1-.25.07-.45.18-.63.31-.18.14-.33.3-.47.47-.14.18-.24.38-.31.63-.07.25-.11.51-.11.78,0,.35.04.63.11.84.07.21.16.4.26.57.1.18.26.33.47.47.21.14.4.25.58.31.17.07.43.1.78.1h.1c.3-.02.57-.04.78-.1.24-.07.45-.17.63-.31.17-.14.33-.3.47-.47.14-.17.24-.37.31-.57.07-.21.11-.49.11-.84s-.04-.63-.11-.84c-.07-.21-.16-.4-.26-.57Z"/>
    <path class="cls-1" d="M762.55,94.35c-.1-.17-.26-.33-.47-.47-.21-.14-.42-.24-.63-.31-.21-.07-.45-.11-.73-.11h-.1c-.3.02-.57.04-.78.11-.24.07-.45.18-.62.31-.18.14-.33.3-.47.47-.14.17-.24.38-.31.63-.07.24-.1.51-.1.78,0,.35.03.63.1.84.07.21.16.4.26.58.1.17.26.33.47.47.21.14.4.25.57.31.17.07.43.11.78.11h.1c.29-.02.57-.04.78-.11.24-.07.45-.17.63-.31.17-.14.33-.3.47-.47.14-.17.24-.37.31-.58s.1-.49.1-.84-.03-.63-.1-.84-.15-.4-.26-.58Z"/>
    <path class="cls-1" d="M764.02,83.91c-.11-.17-.26-.33-.47-.47-.21-.14-.42-.24-.63-.31-.21-.07-.45-.1-.73-.1h-.1c-.3.02-.57.04-.78.1-.25.07-.46.18-.63.31-.17.14-.33.3-.47.47-.14.17-.25.38-.31.63-.07.25-.1.51-.1.78,0,.35.04.63.1.84.07.21.16.4.26.57.1.18.26.33.47.47.21.14.4.25.57.31.17.07.43.1.78.1h.1c.3-.02.57-.04.78-.1.24-.07.45-.17.63-.31.17-.14.33-.3.47-.47.14-.17.24-.37.31-.57.07-.21.1-.49.1-.84s-.04-.63-.1-.84c-.07-.21-.16-.4-.26-.57Z"/>
    <path class="cls-1" d="M758.22,53.14c-.07-.21-.15-.4-.26-.58-.1-.17-.26-.33-.47-.47-.21-.14-.42-.24-.63-.31-.21-.07-.45-.11-.73-.11h-.11c-.3.02-.57.04-.78.11-.24.07-.45.17-.63.31-.17.14-.33.3-.47.47-.14.18-.24.38-.31.63-.07.24-.1.51-.1.78,0,.35.03.63.1.84.07.21.16.4.26.58.1.18.26.33.47.47.21.14.4.25.58.31.17.07.43.11.78.11h.1c.3-.02.57-.04.78-.11.24-.07.45-.17.63-.31.17-.14.33-.3.47-.47.14-.17.24-.37.31-.58s.11-.49.11-.84-.04-.63-.11-.84Z"/>
    <path class="cls-1" d="M851.36,94.35c-.1-.17-.26-.33-.47-.47-.21-.14-.41-.24-.63-.31-.21-.07-.45-.11-.73-.11h-.1c-.3.02-.57.04-.78.11-.25.07-.45.18-.63.31-.18.14-.33.3-.47.47-.14.17-.24.38-.31.63-.07.24-.11.51-.11.78,0,.35.04.63.11.84.07.21.15.4.26.58.1.17.26.33.47.47.21.14.4.25.57.31.17.07.43.11.78.11h.1c.3-.02.57-.04.78-.11.24-.07.45-.17.63-.31.17-.14.33-.3.47-.47.14-.17.24-.37.31-.58.07-.21.1-.49.1-.84s-.03-.63-.1-.84c-.07-.21-.16-.4-.26-.58Z"/>
    <path class="cls-1" d="M863.27,83.91c-.11-.17-.26-.33-.47-.47-.21-.14-.42-.24-.63-.31-.21-.07-.45-.1-.73-.1h-.1c-.3.02-.57.04-.78.1-.25.07-.45.18-.63.31-.18.14-.33.3-.47.47-.14.17-.25.38-.32.63-.07.25-.1.51-.1.78,0,.35.04.63.1.84.07.21.16.4.26.57.1.18.26.33.47.47.21.14.4.25.57.31.18.07.44.1.78.1h.1c.3-.02.57-.04.78-.1.24-.07.45-.17.63-.31.17-.14.33-.3.47-.47.14-.17.25-.37.32-.57.07-.21.1-.49.1-.84s-.03-.63-.1-.84c-.07-.21-.16-.4-.26-.57Z"/>
    <path class="cls-1" d="M857.21,52.56c-.1-.17-.26-.33-.47-.47-.21-.14-.42-.24-.63-.31-.21-.07-.45-.11-.73-.11h-.11c-.3.02-.57.04-.78.11-.25.07-.45.17-.63.31-.17.14-.33.3-.47.47-.14.18-.25.38-.32.63-.07.24-.1.51-.1.78,0,.35.03.63.1.84s.16.4.26.58c.1.18.26.33.47.47.21.14.4.25.57.31.17.07.43.11.78.11h.1c.3-.02.57-.04.78-.11.24-.07.45-.17.63-.31.17-.14.33-.3.47-.47.14-.17.24-.37.31-.58.07-.21.1-.49.1-.84s-.04-.63-.1-.84c-.07-.21-.16-.4-.26-.58Z"/>
    <path class="cls-1" d="M858.93,42.69c-.07-.21-.16-.4-.26-.57-.1-.17-.26-.33-.47-.47-.21-.14-.42-.24-.63-.31-.21-.07-.45-.11-.73-.11h-.1c-.3.02-.57.04-.78.11-.25.07-.45.17-.63.31-.18.14-.33.3-.47.47-.14.17-.25.38-.31.63-.07.25-.11.51-.11.78,0,.35.04.63.11.84.06.21.15.4.26.57.1.18.26.33.47.47.21.14.4.25.58.31.17.07.43.1.78.1h.11c.3-.02.57-.04.78-.1.25-.07.45-.17.63-.31.17-.14.33-.3.47-.47.14-.17.24-.37.31-.57.07-.21.1-.49.1-.84s-.03-.63-.1-.84Z"/>
    <path class="cls-1" d="M864.73,73.46c-.1-.17-.26-.33-.47-.47-.21-.14-.42-.24-.63-.31-.21-.07-.45-.1-.73-.1h-.1c-.3.02-.57.04-.78.1-.24.07-.45.18-.63.31-.18.14-.33.3-.47.47-.14.18-.25.38-.31.63-.07.25-.1.51-.1.78,0,.35.04.63.1.84.07.21.16.4.26.57.1.18.26.33.47.47.21.14.4.25.58.31.17.07.43.1.78.1h.1c.3-.02.57-.04.78-.1.24-.07.45-.17.63-.31.17-.14.33-.3.47-.47.14-.17.24-.37.31-.57.07-.21.1-.49.1-.84s-.03-.63-.1-.84c-.07-.21-.16-.4-.26-.57Z"/>
    <path class="cls-1" d="M847.7,45.41c.17-.14.33-.3.47-.47.14-.17.24-.37.31-.57.07-.21.11-.49.11-.84s-.04-.63-.11-.84c-.07-.21-.15-.4-.26-.57-.1-.17-.26-.33-.47-.47-.21-.14-.42-.24-.63-.31-.21-.07-.45-.11-.73-.11h-.11c-.3.02-.57.04-.78.11-.25.07-.45.17-.63.31-.17.14-.33.3-.47.47-.14.17-.24.38-.31.63-.07.25-.1.51-.1.78,0,.35.03.63.1.84.07.21.16.4.26.57.1.18.26.33.47.47.21.14.4.25.57.31.17.07.43.1.78.1h.1c.3-.02.57-.04.78-.1.24-.07.45-.17.63-.31Z"/>
    <path class="cls-1" d="M833.91,44.94c.1.18.26.33.47.47.21.14.4.25.57.31.18.07.43.1.78.1h.1c.3-.02.57-.04.78-.1.24-.07.45-.17.63-.31.17-.14.33-.3.47-.47.14-.17.24-.37.31-.57.07-.21.1-.49.1-.84s-.03-.63-.1-.84c-.07-.21-.16-.4-.26-.57-.1-.17-.26-.33-.47-.47-.21-.14-.42-.24-.63-.31-.21-.07-.45-.11-.73-.11h-.1c-.3.02-.57.04-.78.11-.24.07-.45.17-.62.31-.18.14-.33.3-.47.47-.14.17-.25.38-.31.63-.07.25-.11.51-.11.78,0,.35.04.63.11.84.07.21.15.4.26.57Z"/>
    <path class="cls-1" d="M867.65,52.56c-.1-.17-.26-.33-.47-.47-.21-.14-.42-.24-.62-.31-.21-.07-.45-.11-.73-.11h-.1c-.3.02-.57.04-.78.11-.25.07-.45.17-.63.31-.18.14-.33.3-.47.47-.14.18-.25.38-.31.63-.07.24-.11.51-.11.78,0,.35.04.63.11.84.07.21.15.4.26.58.1.18.26.33.47.47.21.14.4.25.57.31.17.07.43.11.78.11h.1c.3-.02.57-.04.78-.11.24-.07.45-.17.62-.31.17-.14.33-.3.47-.47.14-.17.24-.37.31-.58.07-.21.1-.49.1-.84s-.04-.63-.1-.84c-.07-.21-.16-.4-.26-.58Z"/>
    <path class="cls-1" d="M866.19,63.01c-.1-.17-.26-.33-.47-.47-.21-.14-.42-.24-.63-.31-.21-.07-.45-.1-.73-.1h-.1c-.3.02-.57.04-.78.1-.25.07-.45.17-.63.31-.17.14-.33.3-.47.47-.14.18-.24.38-.31.63-.07.24-.1.51-.1.78,0,.35.03.63.1.84s.16.4.26.58c.11.17.26.33.47.47.21.14.4.24.57.31.17.07.43.11.78.11h.1c.3-.02.57-.04.78-.11.25-.07.45-.17.63-.31.18-.14.33-.3.47-.47.14-.17.24-.37.31-.58.07-.21.11-.49.11-.84s-.04-.63-.11-.84c-.07-.21-.16-.4-.26-.58Z"/>
    <path class="cls-1" d="M833.39,73.46c-.1-.17-.26-.33-.47-.47-.21-.14-.42-.24-.63-.31-.21-.07-.45-.1-.73-.1h-.1c-.3.02-.57.04-.78.1-.25.07-.45.18-.63.31-.18.14-.33.3-.47.47-.14.18-.25.38-.31.63-.07.25-.1.51-.1.78,0,.35.03.63.1.84.07.21.16.4.26.57.1.18.26.33.47.47.21.14.4.25.58.31.17.07.43.1.78.1h.11c.3-.02.57-.04.78-.1.25-.07.45-.17.63-.31.17-.14.33-.3.47-.47.14-.17.25-.37.31-.57.07-.21.1-.49.1-.84s-.03-.63-.1-.84c-.07-.21-.16-.4-.26-.57Z"/>
    <path class="cls-1" d="M840.91,94.35c-.1-.17-.26-.33-.47-.47-.21-.14-.42-.24-.63-.31-.21-.07-.45-.11-.73-.11h-.11c-.3.02-.57.04-.78.11-.24.07-.45.18-.63.31-.17.14-.33.3-.47.47-.14.17-.25.38-.32.63-.07.24-.1.51-.1.78,0,.35.03.63.1.84s.16.4.26.58c.11.17.26.33.47.47.21.14.4.25.57.31.17.07.43.11.78.11h.1c.3-.02.57-.04.78-.11.24-.07.45-.17.63-.31.17-.14.33-.3.47-.47.14-.17.25-.37.32-.58.07-.21.1-.49.1-.84s-.04-.63-.1-.84c-.07-.21-.16-.4-.26-.58Z"/>
    <path class="cls-1" d="M826.12,53.14c-.07-.21-.16-.4-.26-.58-.1-.17-.26-.33-.47-.47-.21-.14-.42-.24-.63-.31-.21-.07-.45-.11-.73-.11h-.1c-.3.02-.57.04-.78.11-.24.07-.45.17-.63.31-.18.14-.33.3-.47.47-.14.18-.24.38-.31.63-.07.24-.11.51-.11.78,0,.35.04.63.11.84.07.21.16.4.26.58.1.18.26.33.47.47.21.14.4.25.58.31.17.07.43.11.78.11h.1c.3-.02.57-.04.78-.11.24-.07.45-.17.63-.31.17-.14.33-.3.47-.47.14-.17.24-.37.31-.58s.11-.49.11-.84-.04-.63-.11-.84Z"/>
    <path class="cls-1" d="M824.4,63.01c-.11-.17-.26-.33-.47-.47-.21-.14-.42-.24-.63-.31-.21-.07-.45-.1-.73-.1h-.1c-.3.02-.57.04-.78.1-.25.07-.46.17-.63.31-.18.14-.33.3-.47.47-.14.18-.25.38-.32.63-.07.24-.1.51-.1.78,0,.35.04.63.1.84.07.21.16.4.26.58.1.17.26.33.47.47.21.14.4.24.57.31.18.07.44.11.78.11h.1c.3-.02.57-.04.78-.11.24-.07.45-.17.63-.31.17-.14.33-.3.47-.47.14-.17.25-.37.32-.58.07-.21.1-.49.1-.84s-.03-.63-.1-.84c-.07-.21-.16-.4-.26-.58Z"/>
    <path class="cls-1" d="M821.48,83.91c-.1-.17-.26-.33-.47-.47-.21-.14-.42-.24-.63-.31-.21-.07-.45-.1-.73-.1h-.1c-.3.02-.57.04-.78.1-.25.07-.45.18-.63.31-.18.14-.33.3-.47.47-.14.17-.24.38-.31.63-.07.25-.1.51-.1.78,0,.35.04.63.1.84.07.21.15.4.26.57.1.18.26.33.47.47.21.14.4.25.57.31.18.07.43.1.78.1h.11c.29-.02.57-.04.78-.1.24-.07.45-.17.63-.31.17-.14.33-.3.47-.47.14-.17.24-.37.31-.57.07-.21.1-.49.1-.84s-.03-.63-.1-.84c-.07-.21-.16-.4-.26-.57Z"/>
    <path class="cls-1" d="M822.94,73.46c-.1-.17-.26-.33-.47-.47-.21-.14-.42-.24-.63-.31-.21-.07-.45-.1-.73-.1h-.1c-.3.02-.57.04-.78.1-.24.07-.45.18-.62.31-.18.14-.33.3-.47.47-.14.18-.24.38-.31.63-.07.25-.1.51-.1.78,0,.35.03.63.1.84.07.21.16.4.26.57.1.18.26.33.47.47.21.14.4.25.57.31.17.07.43.1.78.1h.1c.3-.02.57-.04.78-.1.24-.07.45-.17.63-.31.17-.14.33-.3.47-.47.14-.17.24-.37.31-.57.07-.21.11-.49.11-.84s-.04-.63-.11-.84c-.07-.21-.15-.4-.26-.57Z"/>
    <path class="cls-1" d="M836.57,53.14c-.07-.21-.16-.4-.26-.58-.1-.17-.26-.33-.47-.47-.21-.14-.42-.24-.63-.31-.21-.07-.45-.11-.73-.11h-.1c-.3.02-.57.04-.78.11-.25.07-.45.17-.63.31-.17.14-.33.3-.47.47-.14.18-.25.38-.32.63-.07.24-.1.51-.1.78,0,.35.03.63.1.84.07.21.16.4.26.58.11.18.26.33.47.47.21.14.4.25.57.31.17.07.43.11.78.11h.11c.3-.02.57-.04.78-.11.24-.07.45-.17.63-.31.17-.14.33-.3.47-.47.14-.17.25-.37.32-.58.07-.21.1-.49.1-.84s-.04-.63-.1-.84Z"/>
    <path class="cls-1" d="M830.46,94.35c-.1-.17-.26-.33-.47-.47-.21-.14-.42-.24-.63-.31-.21-.07-.45-.11-.73-.11h-.1c-.3.02-.57.04-.78.11-.25.07-.45.18-.63.31-.18.14-.33.3-.47.47-.14.17-.25.38-.31.63-.07.24-.1.51-.1.78,0,.35.03.63.1.84.07.21.16.4.26.58.1.17.26.33.47.47.21.14.4.25.58.31.17.07.43.11.78.11h.1c.3-.02.57-.04.78-.11.24-.07.45-.17.63-.31.17-.14.33-.3.47-.47.14-.17.24-.37.31-.58s.1-.49.1-.84-.03-.63-.1-.84-.16-.4-.26-.58Z"/>
    <path class="cls-1" d="M834.85,63.01c-.1-.17-.26-.33-.47-.47-.21-.14-.42-.24-.63-.31-.21-.07-.45-.1-.73-.1h-.11c-.3.02-.57.04-.78.1-.24.07-.45.17-.63.31-.18.14-.33.3-.47.47-.14.18-.24.38-.31.63-.07.24-.1.51-.1.78,0,.35.03.63.1.84s.16.4.26.58c.1.17.26.33.47.47.21.14.4.24.57.31.17.07.43.11.78.11h.1c.3-.02.57-.04.78-.11.24-.07.45-.17.63-.31.17-.14.33-.3.47-.47.14-.17.24-.37.31-.58.07-.21.11-.49.11-.84s-.04-.63-.11-.84c-.07-.21-.16-.4-.26-.58Z"/>
    <path class="cls-1" d="M831.92,83.91c-.1-.17-.26-.33-.47-.47-.21-.14-.42-.24-.63-.31-.21-.07-.45-.1-.73-.1h-.11c-.3.02-.57.04-.78.1-.25.07-.45.18-.63.31-.17.14-.33.3-.47.47-.14.17-.24.38-.31.63-.07.25-.1.51-.1.78,0,.35.03.63.1.84.07.21.16.4.26.57.1.18.26.33.47.47.21.14.4.25.57.31.17.07.43.1.78.1h.1c.3-.02.57-.04.78-.1.24-.07.45-.17.63-.31.17-.14.33-.3.47-.47.14-.17.24-.37.31-.57.07-.21.11-.49.11-.84s-.04-.63-.11-.84c-.07-.21-.15-.4-.26-.57Z"/>
    <path class="cls-1" d="M920.72,83.91c-.1-.17-.26-.33-.47-.47-.21-.14-.42-.24-.63-.31-.21-.07-.45-.1-.73-.1h-.11c-.3.02-.57.04-.78.1-.24.07-.45.18-.63.31-.18.14-.33.3-.47.47-.14.17-.24.38-.31.63-.07.25-.1.51-.1.78,0,.35.03.63.1.84s.16.4.26.57c.11.18.26.33.47.47.21.14.4.25.57.31.17.07.43.1.78.1h.1c.3-.02.57-.04.78-.1.24-.07.45-.17.63-.31.17-.14.33-.3.47-.47.14-.17.24-.37.31-.57.07-.21.11-.49.11-.84s-.04-.63-.11-.84c-.07-.21-.15-.4-.26-.57Z"/>
    <path class="cls-1" d="M929.71,94.35c-.1-.17-.26-.33-.47-.47-.21-.14-.42-.24-.63-.31-.21-.07-.45-.11-.73-.11h-.1c-.3.02-.57.04-.78.11-.24.07-.45.18-.63.31-.18.14-.33.3-.47.47-.14.17-.24.38-.31.63-.07.24-.1.51-.1.78,0,.35.03.63.1.84.07.21.16.4.26.58.1.17.26.33.47.47.21.14.4.25.58.31.17.07.43.11.78.11h.1c.3-.02.57-.04.78-.11.24-.07.45-.17.63-.31.17-.14.33-.3.47-.47.14-.17.24-.37.31-.58.07-.21.11-.49.11-.84s-.04-.63-.11-.84-.15-.4-.26-.58Z"/>
    <path class="cls-1" d="M925.37,53.14c-.07-.21-.16-.4-.26-.58-.11-.17-.26-.33-.47-.47-.21-.14-.42-.24-.63-.31-.21-.07-.45-.11-.73-.11h-.11c-.3.02-.57.04-.78.11-.25.07-.45.17-.63.31-.17.14-.33.3-.47.47-.14.18-.25.38-.32.63-.07.24-.1.51-.1.78,0,.35.03.63.1.84.07.21.16.4.26.58.1.18.26.33.47.47.21.14.4.25.57.31.17.07.43.11.78.11h.1c.3-.02.57-.04.78-.11.24-.07.45-.17.63-.31.17-.14.33-.3.47-.47.14-.17.24-.37.31-.58.07-.21.1-.49.1-.84s-.04-.63-.1-.84Z"/>
    <path class="cls-1" d="M922.19,73.46c-.11-.17-.26-.33-.47-.47-.21-.14-.42-.24-.63-.31-.21-.07-.45-.1-.73-.1h-.1c-.3.02-.57.04-.78.1-.25.07-.45.18-.63.31-.17.14-.33.3-.47.47-.14.18-.25.38-.32.63-.07.25-.1.51-.1.78,0,.35.04.63.1.84.07.21.16.4.26.57.1.18.26.33.47.47.21.14.4.25.57.31.17.07.43.1.78.1h.11c.3-.02.57-.04.78-.1.24-.07.45-.17.63-.31.17-.14.33-.3.47-.47.14-.17.24-.37.32-.57.07-.21.1-.49.1-.84s-.04-.63-.1-.84c-.07-.21-.16-.4-.26-.57Z"/>
    <path class="cls-1" d="M935.56,52.56c-.1-.17-.26-.33-.47-.47-.21-.14-.42-.24-.63-.31-.21-.07-.45-.11-.73-.11h-.1c-.3.02-.57.04-.78.11-.25.07-.45.17-.63.31-.18.14-.33.3-.47.47-.14.18-.25.38-.31.63-.07.24-.11.51-.11.78,0,.35.04.63.11.84.07.21.15.4.26.58.1.18.26.33.47.47.21.14.4.25.57.31.17.07.43.11.78.11h.11c.3-.02.57-.04.78-.11.24-.07.45-.17.63-.31.17-.14.33-.3.47-.47.14-.17.24-.37.31-.58.07-.21.1-.49.1-.84s-.03-.63-.1-.84c-.07-.21-.16-.4-.26-.58Z"/>
    <path class="cls-1" d="M891.36,44.94c.11.18.26.33.47.47.21.14.4.25.57.31.17.07.43.1.78.1h.11c.29-.02.57-.04.78-.1.25-.07.45-.17.63-.31.17-.14.33-.3.47-.47.14-.17.25-.37.32-.57.07-.21.1-.49.1-.84s-.04-.63-.1-.84c-.07-.21-.16-.4-.26-.57-.1-.17-.26-.33-.47-.47-.21-.14-.42-.24-.63-.31-.21-.07-.45-.11-.73-.11h-.1c-.3.02-.57.04-.78.11-.25.07-.45.17-.63.31-.17.14-.33.3-.47.47-.14.17-.24.38-.31.63-.07.25-.1.51-.1.78,0,.35.03.63.1.84.07.21.16.4.26.57Z"/>
    <path class="cls-1" d="M922.71,44.94c.1.18.26.33.47.47.21.14.4.25.58.31.17.07.43.1.78.1h.11c.3-.02.57-.04.78-.1.25-.07.45-.17.63-.31.17-.14.33-.3.47-.47.14-.17.24-.37.32-.57.07-.21.1-.49.1-.84s-.04-.63-.1-.84c-.07-.21-.16-.4-.26-.57-.1-.17-.26-.33-.47-.47-.21-.14-.42-.24-.63-.31-.21-.07-.45-.11-.73-.11h-.1c-.3.02-.57.04-.78.11-.25.07-.45.17-.63.31-.18.14-.33.3-.47.47-.14.17-.25.38-.31.63-.07.25-.11.51-.11.78,0,.35.04.63.11.84.07.21.15.4.26.57Z"/>
    <path class="cls-1" d="M934.09,63.01c-.1-.17-.26-.33-.47-.47-.21-.14-.42-.24-.63-.31-.21-.07-.45-.1-.73-.1h-.11c-.3.02-.57.04-.78.1-.25.07-.45.17-.63.31-.17.14-.33.3-.47.47-.14.18-.24.38-.31.63-.07.24-.1.51-.1.78,0,.35.03.63.1.84s.16.4.26.58c.11.17.26.33.47.47.21.14.4.24.57.31.17.07.43.11.78.11h.1c.3-.02.57-.04.78-.11.25-.07.45-.17.63-.31.17-.14.33-.3.47-.47.14-.17.25-.37.31-.58.07-.21.11-.49.11-.84s-.04-.63-.11-.84c-.07-.21-.16-.4-.26-.58Z"/>
    <path class="cls-1" d="M931.17,83.91c-.11-.17-.26-.33-.47-.47-.21-.14-.42-.24-.63-.31-.21-.07-.45-.1-.73-.1h-.1c-.3.02-.57.04-.78.1-.25.07-.45.18-.63.31-.18.14-.33.3-.47.47-.14.17-.25.38-.31.63-.07.25-.1.51-.1.78,0,.35.03.63.1.84.07.21.16.4.26.57.1.18.26.33.47.47.21.14.4.25.57.31.17.07.44.1.78.1h.1c.3-.02.57-.04.78-.1.24-.07.45-.17.63-.31.17-.14.33-.3.47-.47.14-.17.25-.37.31-.57.07-.21.1-.49.1-.84s-.03-.63-.1-.84c-.07-.21-.16-.4-.26-.57Z"/>
    <path class="cls-1" d="M916.39,42.69c-.07-.21-.15-.4-.26-.57-.1-.17-.26-.33-.47-.47-.21-.14-.42-.24-.63-.31-.21-.07-.45-.11-.73-.11h-.11c-.3.02-.57.04-.78.11-.24.07-.45.17-.63.31-.17.14-.33.3-.47.47-.14.17-.24.38-.31.63-.07.25-.1.51-.1.78,0,.35.03.63.1.84.07.21.16.4.26.57.1.18.26.33.47.47.21.14.4.25.57.31.17.07.43.1.78.1h.1c.3-.02.57-.04.78-.1.24-.07.45-.17.63-.31.17-.14.33-.3.47-.47.14-.17.24-.37.31-.57.07-.21.11-.49.11-.84s-.04-.63-.11-.84Z"/>
    <path class="cls-1" d="M901.29,73.46c-.1-.17-.26-.33-.47-.47-.21-.14-.42-.24-.62-.31-.21-.07-.45-.1-.73-.1h-.1c-.3.02-.57.04-.78.1-.25.07-.45.18-.63.31-.18.14-.33.3-.47.47-.14.18-.25.38-.32.63-.07.25-.1.51-.1.78,0,.35.03.63.1.84.07.21.16.4.26.57.1.18.26.33.47.47.21.14.4.25.58.31.17.07.43.1.78.1h.11c.3-.02.57-.04.78-.1.24-.07.45-.17.63-.31.17-.14.33-.3.47-.47.14-.17.25-.37.32-.57.07-.21.1-.49.1-.84s-.04-.63-.1-.84c-.07-.21-.16-.4-.26-.57Z"/>
    <path class="cls-1" d="M890.84,73.46c-.1-.17-.26-.33-.47-.47-.21-.14-.42-.24-.63-.31-.21-.07-.45-.1-.73-.1h-.1c-.3.02-.57.04-.78.1-.24.07-.45.18-.63.31-.18.14-.33.3-.47.47-.14.18-.24.38-.31.63-.07.25-.1.51-.1.78,0,.35.03.63.1.84.07.21.16.4.26.57.1.18.26.33.47.47.21.14.4.25.57.31.17.07.43.1.78.1h.1c.3-.02.57-.04.78-.1.24-.07.45-.17.63-.31.17-.14.33-.3.47-.47.14-.17.24-.37.31-.57.07-.21.11-.49.11-.84s-.04-.63-.11-.84c-.07-.21-.15-.4-.26-.57Z"/>
    <path class="cls-1" d="M892.31,63.01c-.11-.17-.26-.33-.47-.47-.21-.14-.42-.24-.63-.31-.21-.07-.45-.1-.73-.1h-.1c-.3.02-.57.04-.78.1-.25.07-.45.17-.63.31-.18.14-.33.3-.47.47-.14.18-.25.38-.31.63-.07.24-.1.51-.1.78,0,.35.03.63.1.84.07.21.16.4.26.58.1.17.26.33.47.47.21.14.4.24.57.31.17.07.44.11.78.11h.1c.3-.02.57-.04.78-.11.24-.07.45-.17.63-.31.17-.14.33-.3.47-.47.14-.17.25-.37.31-.58.07-.21.1-.49.1-.84s-.03-.63-.1-.84c-.07-.21-.16-.4-.26-.58Z"/>
    <path class="cls-1" d="M889.38,83.91c-.11-.17-.26-.33-.47-.47-.21-.14-.42-.24-.63-.31-.21-.07-.45-.1-.73-.1h-.1c-.3.02-.57.04-.78.1-.25.07-.45.18-.63.31-.18.14-.33.3-.47.47-.14.17-.25.38-.31.63-.07.25-.11.51-.11.78,0,.35.04.63.11.84.07.21.15.4.26.57.1.18.26.33.47.47.21.14.4.25.57.31.18.07.43.1.78.1h.11c.3-.02.57-.04.78-.1.24-.07.45-.17.63-.31.17-.14.33-.3.47-.47.14-.17.24-.37.31-.57.07-.21.1-.49.1-.84s-.04-.63-.1-.84c-.07-.21-.16-.4-.26-.57Z"/>
    <path class="cls-1" d="M894.03,53.14c-.07-.21-.16-.4-.26-.58-.1-.17-.26-.33-.47-.47-.21-.14-.42-.24-.63-.31-.21-.07-.45-.11-.73-.11h-.1c-.3.02-.57.04-.78.11-.24.07-.45.17-.63.31-.18.14-.33.3-.47.47-.14.18-.25.38-.31.63-.07.24-.1.51-.1.78,0,.35.03.63.1.84.07.21.16.4.26.58.1.18.26.33.47.47.21.14.4.25.58.31.17.07.43.11.78.11h.1c.3-.02.57-.04.78-.11.24-.07.45-.17.63-.31.17-.14.33-.3.47-.47.14-.17.24-.37.31-.58.07-.21.1-.49.1-.84s-.03-.63-.1-.84Z"/>
    <path class="cls-1" d="M887.92,94.35c-.1-.17-.26-.33-.47-.47-.21-.14-.42-.24-.63-.31-.21-.07-.45-.11-.73-.11h-.11c-.3.02-.57.04-.78.11-.24.07-.45.18-.63.31-.17.14-.33.3-.47.47-.14.17-.25.38-.31.63-.07.24-.1.51-.1.78,0,.35.03.63.1.84.07.21.16.4.26.58.11.17.26.33.47.47.21.14.4.25.57.31.17.07.43.11.78.11h.1c.3-.02.57-.04.78-.11.24-.07.45-.17.63-.31.17-.14.33-.3.47-.47.14-.17.24-.37.31-.58.07-.21.1-.49.1-.84s-.04-.63-.1-.84c-.07-.21-.16-.4-.26-.58Z"/>
    <path class="cls-1" d="M898.37,94.35c-.1-.17-.26-.33-.47-.47-.21-.14-.41-.24-.63-.31-.21-.07-.45-.11-.73-.11h-.1c-.3.02-.57.04-.78.11-.25.07-.45.18-.63.31-.18.14-.33.3-.47.47-.14.17-.24.38-.31.63-.07.24-.11.51-.11.78,0,.35.04.63.11.84.07.21.16.4.26.58.1.17.26.33.47.47.21.14.4.25.58.31.17.07.43.11.78.11h.1c.3-.02.57-.04.78-.11.24-.07.45-.17.63-.31.17-.14.33-.3.47-.47.14-.17.24-.37.31-.58s.1-.49.1-.84-.03-.63-.1-.84-.16-.4-.26-.58Z"/>
    <path class="cls-1" d="M899.83,83.91c-.1-.17-.26-.33-.47-.47-.21-.14-.42-.24-.63-.31-.21-.07-.45-.1-.73-.1h-.11c-.3.02-.57.04-.78.1-.25.07-.45.18-.63.31-.17.14-.33.3-.47.47-.14.17-.24.38-.31.63-.07.25-.1.51-.1.78,0,.35.03.63.1.84s.16.4.26.57c.11.18.26.33.47.47.21.14.4.25.57.31.17.07.43.1.78.1h.1c.3-.02.57-.04.78-.1.24-.07.45-.17.63-.31.17-.14.33-.3.47-.47.14-.17.24-.37.31-.57.07-.21.11-.49.11-.84s-.04-.63-.11-.84c-.07-.21-.15-.4-.26-.57Z"/>
    <path class="cls-1" d="M902.75,63.01c-.1-.17-.26-.33-.47-.47-.21-.14-.42-.24-.63-.31-.21-.07-.45-.1-.73-.1h-.11c-.3.02-.57.04-.78.1-.24.07-.45.17-.63.31-.17.14-.33.3-.47.47-.14.18-.24.38-.31.63-.07.24-.1.51-.1.78,0,.35.03.63.1.84s.16.4.26.58c.1.17.26.33.47.47.21.14.4.24.57.31.17.07.43.11.78.11h.1c.3-.02.57-.04.78-.11.24-.07.45-.17.63-.31.17-.14.33-.3.47-.47.14-.17.24-.37.31-.58.07-.21.1-.49.1-.84s-.04-.63-.1-.84c-.07-.21-.16-.4-.26-.58Z"/>
    <path class="cls-1" d="M904.22,52.56c-.1-.17-.26-.33-.47-.47-.21-.14-.42-.24-.63-.31-.21-.07-.45-.11-.73-.11h-.1c-.3.02-.57.04-.78.11-.25.07-.45.17-.63.31-.17.14-.33.3-.47.47-.14.18-.25.38-.31.63-.07.24-.1.51-.1.78,0,.35.03.63.1.84.07.21.16.4.26.58.11.18.26.33.47.47.21.14.4.25.58.31.17.07.43.11.78.11h.11c.3-.02.57-.04.78-.11.25-.07.45-.17.63-.31.17-.14.33-.3.47-.47.14-.17.24-.37.31-.58.07-.21.1-.49.1-.84s-.04-.63-.1-.84c-.07-.21-.16-.4-.26-.58Z"/>
    <path class="cls-1" d="M905.68,42.12c-.1-.17-.26-.33-.47-.47-.21-.14-.42-.24-.63-.31-.21-.07-.45-.11-.73-.11h-.1c-.3.02-.57.04-.78.11-.25.07-.45.17-.63.31-.18.14-.33.3-.47.47-.14.17-.25.38-.31.63-.07.25-.11.51-.11.78,0,.35.04.63.11.84.07.21.15.4.26.57.1.18.26.33.47.47.21.14.4.25.57.31.17.07.43.1.78.1h.1c.3-.02.57-.04.78-.1.24-.07.45-.17.63-.31.17-.14.33-.3.47-.47.14-.17.24-.37.31-.57.07-.21.1-.49.1-.84s-.03-.63-.1-.84c-.07-.21-.16-.4-.26-.57Z"/>
    <path class="cls-1" d="M911.74,73.46c-.1-.17-.26-.33-.47-.47-.21-.14-.42-.24-.63-.31-.21-.07-.45-.1-.73-.1h-.1c-.3.02-.57.04-.78.1-.24.07-.45.18-.63.31-.18.14-.33.3-.47.47-.14.18-.24.38-.31.63-.07.25-.1.51-.1.78,0,.35.03.63.1.84.07.21.16.4.26.57.1.18.26.33.47.47.21.14.4.25.57.31.17.07.43.1.78.1h.1c.3-.02.57-.04.78-.1.24-.07.45-.17.63-.31.18-.14.33-.3.47-.47.14-.17.24-.37.31-.57.07-.21.11-.49.11-.84s-.04-.63-.11-.84c-.07-.21-.16-.4-.26-.57Z"/>
  </g>
  <g>
    <path class="cls-1" d="M1003.72,63.12c-.14-.38-.31-.73-.52-1.05-.21-.31-.47-.57-.78-.78-.31-.21-.66-.38-1.05-.52-.35-.13-.75-.18-1.18-.19l-.02-.02h-.21v.02c-.44.01-.83.06-1.15.19-.35.14-.7.31-1.04.52-.35.21-.63.47-.84.78-.21.31-.38.66-.52,1.05-.13.35-.18.75-.19,1.18l-.02.02v.21l.02.02c.01.43.06.84.19,1.18.14.38.31.73.52,1.04.21.31.47.58.78.78s.66.38,1.04.52c.35.13.75.18,1.18.19l.02.02h.1c.49,0,.91-.07,1.26-.21.35-.14.7-.31,1.04-.52s.63-.47.84-.78c.21-.31.38-.66.52-1.04.12-.35.18-.75.19-1.18l.02-.02v-.21l-.02-.02c-.01-.43-.06-.83-.19-1.18Z"/>
    <path class="cls-1" d="M999.34,94.46c-.14-.38-.32-.73-.52-1.04-.21-.31-.47-.58-.78-.78-.32-.21-.66-.38-1.05-.52-.35-.13-.75-.18-1.18-.19l-.02-.02h-.21v.02c-.44.01-.83.06-1.15.19-.35.14-.7.31-1.04.52-.35.21-.63.47-.84.78-.21.31-.38.66-.52,1.04-.13.35-.18.75-.19,1.18l-.02.02v.21l.02.02c.01.43.06.84.19,1.18.14.38.32.73.52,1.05.21.31.47.57.78.78.32.21.66.38,1.05.52.35.13.75.18,1.18.19l.02.02h.1c.49,0,.91-.07,1.25-.21.35-.14.7-.31,1.04-.52.35-.21.63-.47.84-.78.21-.31.38-.66.52-1.05.12-.35.18-.75.19-1.18l.02-.02v-.21l-.02-.02c-.01-.43-.06-.83-.19-1.18Z"/>
    <path class="cls-1" d="M1005.38,53.85c-.01-.43-.06-.83-.19-1.18-.14-.38-.31-.73-.52-1.05-.21-.31-.47-.57-.78-.78-.31-.21-.66-.38-1.05-.52-.35-.13-.75-.18-1.18-.19l-.02-.02h-.21v.02c-.44.01-.83.06-1.15.19-.35.14-.7.31-1.05.52-.35.21-.63.47-.84.78-.21.31-.38.66-.52,1.05-.13.35-.18.75-.19,1.18l-.02.02v.21l.02.02c.01.43.06.84.19,1.18.14.38.31.73.52,1.05.21.31.47.57.78.78.31.21.66.38,1.05.52.34.13.75.18,1.18.19l.02.02h.11c.49,0,.9-.07,1.25-.21.35-.14.7-.31,1.05-.52.35-.21.63-.47.84-.78.21-.31.38-.66.52-1.05.13-.35.18-.75.19-1.18l.02-.02v-.21l-.02-.02Z"/>
    <path class="cls-1" d="M988.89,44.83c.14.38.31.73.52,1.04.21.31.47.57.78.78.31.21.66.38,1.05.52.34.13.75.18,1.18.19l.02.02h.1c.49,0,.9-.07,1.25-.21.35-.14.7-.31,1.05-.52.35-.21.63-.47.84-.78s.38-.66.52-1.04c.13-.35.18-.75.19-1.18l.02-.02v-.21l-.02-.02c-.01-.43-.06-.83-.19-1.18-.14-.38-.31-.73-.52-1.04-.21-.31-.47-.58-.78-.78-.31-.21-.66-.38-1.05-.52-.35-.12-.75-.18-1.18-.19l-.02-.02h-.21v.02c-.44.01-.83.06-1.15.19-.35.14-.7.31-1.05.52-.35.21-.63.47-.84.78-.21.31-.38.66-.52,1.04-.13.35-.18.75-.19,1.18l-.02.02v.21l.02.02c.01.43.06.84.19,1.18Z"/>
    <path class="cls-1" d="M978.44,44.83c.14.38.32.73.52,1.04s.47.57.78.78c.32.21.66.38,1.05.52.35.13.75.18,1.18.19l.02.02h.1c.49,0,.91-.07,1.25-.21.35-.14.69-.31,1.04-.52.35-.21.63-.47.84-.78s.38-.66.52-1.04c.12-.35.18-.75.19-1.18l.02-.02v-.21l-.02-.02c-.01-.43-.06-.83-.19-1.18-.14-.38-.32-.73-.52-1.04-.21-.31-.47-.58-.78-.78-.31-.21-.66-.38-1.04-.52-.35-.12-.75-.18-1.18-.19l-.02-.02h-.21v.02c-.44.01-.83.07-1.15.19-.35.14-.7.31-1.05.52s-.63.47-.84.78c-.21.31-.38.66-.52,1.04-.13.35-.18.75-.19,1.18l-.02.02v.21l.02.02c.01.43.06.84.19,1.18Z"/>
    <path class="cls-1" d="M987.42,55.28c.14.38.31.73.52,1.05.21.31.47.57.78.78.31.21.66.38,1.04.52.35.13.75.18,1.18.19l.02.02h.1c.49,0,.91-.07,1.26-.21.35-.14.7-.31,1.04-.52.35-.21.63-.47.84-.78.21-.31.38-.66.52-1.05.12-.35.18-.75.19-1.18l.02-.02v-.21l-.02-.02c-.01-.43-.06-.83-.19-1.18-.14-.38-.31-.73-.52-1.05-.21-.31-.47-.57-.78-.78-.32-.21-.66-.38-1.05-.52-.35-.13-.75-.18-1.18-.19l-.02-.02h-.21v.02c-.44.01-.83.06-1.15.19-.35.14-.7.31-1.04.52-.35.21-.63.47-.84.78-.21.31-.38.66-.52,1.05-.13.35-.18.75-.19,1.18l-.02.02v.21l.02.02c.01.43.06.84.19,1.18Z"/>
    <path class="cls-1" d="M985.77,64.3l-.02.02v.21l.02.02c.01.43.06.84.19,1.18.14.38.31.73.52,1.04.21.31.47.58.78.78.31.21.66.38,1.04.52.35.13.75.18,1.18.19l.02.02h.11c.49,0,.9-.07,1.25-.21.35-.14.69-.31,1.04-.52s.63-.47.84-.78c.21-.31.38-.66.52-1.04.13-.35.18-.75.19-1.18l.02-.02v-.21l-.02-.02c-.01-.43-.06-.83-.19-1.18-.14-.38-.31-.73-.52-1.05-.21-.31-.47-.57-.78-.78-.31-.21-.66-.38-1.04-.52-.35-.13-.75-.18-1.18-.19l-.02-.02h-.21v.02c-.44.01-.83.06-1.15.19-.35.14-.7.31-1.04.52-.35.21-.63.47-.84.78-.21.31-.38.66-.52,1.05-.13.35-.18.75-.19,1.18Z"/>
    <path class="cls-1" d="M969.46,84.01c-.14-.38-.32-.73-.52-1.04-.21-.31-.47-.58-.78-.78-.32-.21-.66-.38-1.04-.52-.35-.13-.75-.18-1.18-.19l-.02-.02h-.21v.02c-.44.01-.83.07-1.15.19-.35.14-.7.31-1.05.52-.35.21-.63.47-.84.78-.21.31-.38.66-.52,1.04-.13.35-.18.75-.19,1.18l-.02.02v.21l.02.02c.01.43.06.84.19,1.18.14.38.31.73.52,1.04.21.31.47.57.78.78.31.21.66.38,1.04.52.35.13.75.18,1.18.19l.02.02h.1c.49,0,.91-.07,1.25-.21.35-.14.7-.31,1.04-.52.35-.21.63-.47.84-.78.21-.31.38-.66.52-1.04.12-.35.18-.75.19-1.18l.02-.02v-.21l-.02-.02c-.01-.43-.06-.83-.19-1.18Z"/>
    <path class="cls-1" d="M967.99,94.46c-.14-.38-.31-.73-.52-1.04-.21-.31-.47-.58-.78-.78-.31-.21-.66-.38-1.04-.52-.35-.13-.75-.18-1.18-.19l-.02-.02h-.21v.02c-.44.01-.83.06-1.15.19-.35.14-.69.31-1.04.52-.35.21-.63.47-.84.78-.21.31-.38.66-.52,1.04-.13.35-.18.75-.19,1.18l-.02.02v.21l.02.02c.01.43.06.84.19,1.18.14.38.31.73.52,1.05.21.31.47.57.78.78.31.21.66.38,1.04.52.35.13.75.18,1.18.19l.02.02h.11c.49,0,.9-.07,1.25-.21.35-.14.7-.31,1.04-.52.35-.21.63-.47.84-.78.21-.31.38-.66.52-1.05.13-.35.18-.75.19-1.18l.02-.02v-.21l-.02-.02c-.01-.43-.06-.83-.19-1.18Z"/>
    <path class="cls-1" d="M957.55,94.46c-.14-.38-.31-.73-.52-1.04-.21-.31-.47-.58-.78-.78-.31-.21-.66-.38-1.04-.52-.35-.13-.75-.18-1.18-.19l-.02-.02h-.21v.02c-.44.01-.83.06-1.15.19-.35.14-.7.31-1.04.52-.35.21-.63.47-.84.78-.21.31-.38.66-.52,1.04-.13.35-.18.75-.19,1.18l-.02.02v.21l.02.02c.01.43.06.84.19,1.18.14.38.31.73.52,1.05.21.31.47.57.78.78.32.21.66.38,1.05.52.34.13.75.18,1.18.19l.02.02h.1c.49,0,.91-.07,1.26-.21.34-.14.69-.31,1.04-.52.35-.21.63-.47.84-.78.21-.31.38-.66.52-1.05.12-.35.18-.75.19-1.18l.02-.02v-.21l-.02-.02c-.01-.43-.06-.83-.19-1.18Z"/>
    <path class="cls-1" d="M962.04,57.11c.35-.21.63-.47.84-.78.21-.31.38-.66.52-1.05.13-.35.18-.75.19-1.18l.02-.02v-.21l-.02-.02c-.01-.43-.06-.83-.19-1.18-.14-.38-.31-.73-.52-1.05-.21-.31-.47-.57-.78-.78-.32-.21-.66-.38-1.05-.52-.35-.13-.75-.18-1.18-.19l-.02-.02h-.21v.02c-.44.01-.83.06-1.15.19-.35.14-.69.31-1.04.52-.35.21-.63.47-.84.78-.21.31-.38.66-.52,1.05-.13.35-.18.75-.19,1.18l-.02.02v.21l.02.02c.01.43.06.84.19,1.18.14.38.32.73.52,1.05.21.31.47.57.78.78.31.21.66.38,1.04.52.35.13.75.18,1.18.19l.02.02h.11c.49,0,.9-.07,1.25-.21.35-.14.7-.31,1.05-.52Z"/>
    <path class="cls-1" d="M971.55,47.39h.1c.49,0,.9-.07,1.25-.21.35-.14.7-.31,1.05-.52.35-.21.62-.47.84-.78.21-.31.38-.66.52-1.04.13-.35.18-.75.19-1.18l.02-.02v-.21l-.02-.02c-.01-.43-.06-.83-.19-1.18-.14-.38-.31-.73-.52-1.04-.21-.31-.47-.58-.78-.78-.31-.21-.66-.38-1.04-.52-.35-.12-.75-.18-1.18-.19l-.02-.02h-.21v.02c-.44.01-.83.06-1.15.19-.35.14-.7.31-1.04.52-.35.21-.63.47-.84.78-.21.31-.38.66-.52,1.04-.13.35-.18.75-.19,1.18l-.02.02v.21l.02.02c.01.43.06.84.19,1.18.14.38.31.73.52,1.04.21.31.47.57.78.78.31.21.66.38,1.04.52.34.13.75.18,1.18.19l.02.02Z"/>
    <path class="cls-1" d="M988.89,94.46c-.14-.38-.31-.73-.52-1.04-.21-.31-.47-.58-.78-.78-.31-.21-.66-.38-1.05-.52-.35-.13-.75-.18-1.18-.19l-.02-.02h-.21v.02c-.44.01-.83.06-1.15.19-.35.14-.7.31-1.04.52-.35.21-.63.47-.84.78-.21.31-.38.66-.52,1.04-.13.35-.18.75-.19,1.18l-.02.02v.21l.02.02c.01.43.06.84.19,1.18.14.38.31.73.52,1.05.21.31.47.57.78.78.31.21.66.38,1.04.52.34.13.75.18,1.18.19l.02.02h.1c.49,0,.9-.07,1.25-.21.35-.14.7-.31,1.05-.52.35-.21.63-.47.84-.78.21-.31.38-.66.52-1.05.13-.35.18-.75.19-1.18l.02-.02v-.21l-.02-.02c-.01-.43-.06-.83-.19-1.18Z"/>
    <path class="cls-1" d="M981.55,74.99l.02-.02v-.21l-.02-.02c-.01-.43-.06-.83-.19-1.18-.14-.38-.31-.73-.52-1.04-.21-.31-.47-.57-.78-.78-.32-.21-.66-.38-1.04-.52-.35-.13-.75-.18-1.18-.19l-.02-.02h-.21v.02c-.44.01-.83.06-1.15.19-.35.14-.69.31-1.04.52-.35.21-.63.47-.84.78-.21.31-.38.66-.52,1.04-.13.35-.18.75-.19,1.18l-.02.02v.21l.02.02c.01.43.06.84.19,1.18.14.38.31.73.52,1.04.21.31.47.58.78.78.31.21.66.38,1.04.52.35.13.75.18,1.18.19l.02.02h.1c.49,0,.91-.07,1.25-.21.35-.14.7-.31,1.04-.52.35-.21.63-.47.84-.78.21-.31.38-.66.52-1.04.13-.35.18-.75.19-1.18Z"/>
    <path class="cls-1" d="M992,74.99l.02-.02v-.21l-.02-.02c-.01-.43-.06-.83-.19-1.18-.14-.38-.31-.73-.52-1.04-.21-.31-.47-.57-.78-.78-.31-.21-.66-.38-1.04-.52-.35-.13-.75-.18-1.18-.19l-.02-.02h-.21v.02c-.43.01-.83.06-1.15.19-.35.14-.7.31-1.05.52-.35.21-.63.47-.84.78-.21.31-.38.66-.52,1.04-.13.35-.18.75-.19,1.18l-.02.02v.21l.02.02c.01.43.06.84.19,1.18.14.38.31.73.52,1.04.21.31.47.58.78.78.31.21.66.38,1.04.52.34.13.75.18,1.18.19l.02.02h.1c.49,0,.91-.07,1.25-.21.35-.14.7-.31,1.05-.52.35-.21.63-.47.84-.78.21-.31.38-.66.52-1.04.12-.35.18-.75.19-1.18Z"/>
    <path class="cls-1" d="M979.9,84.01c-.14-.38-.31-.73-.52-1.04-.21-.31-.47-.58-.78-.78-.31-.21-.66-.38-1.04-.52-.35-.13-.75-.18-1.18-.19l-.02-.02h-.21v.02c-.44.01-.83.07-1.15.19-.35.14-.7.31-1.04.52-.35.21-.63.47-.84.78-.21.31-.38.66-.52,1.04-.13.35-.18.75-.19,1.18l-.02.02v.21l.02.02c.01.43.06.84.19,1.18.14.38.31.73.52,1.04.21.31.47.57.78.78.31.21.66.38,1.04.52.34.13.75.18,1.18.19l.02.02h.1c.49,0,.9-.07,1.25-.21.35-.14.69-.31,1.04-.52.35-.21.63-.47.84-.78.21-.31.38-.66.52-1.04.13-.35.18-.75.19-1.18l.02-.02v-.21l-.02-.02c-.01-.43-.06-.83-.19-1.18Z"/>
    <path class="cls-1" d="M978.44,94.46c-.14-.38-.31-.73-.52-1.04-.21-.31-.47-.58-.78-.78-.31-.21-.66-.38-1.04-.52-.35-.13-.75-.18-1.18-.19l-.02-.02h-.21v.02c-.44.01-.83.06-1.15.19-.35.14-.7.31-1.04.52-.35.21-.63.47-.84.78-.21.31-.38.66-.52,1.04-.13.35-.18.75-.19,1.18l-.02.02v.21l.02.02c.01.43.06.84.19,1.18.14.38.31.73.52,1.05.21.31.47.57.78.78.31.21.66.38,1.04.52.35.13.75.18,1.18.19l.02.02h.1c.49,0,.91-.07,1.26-.21.34-.14.69-.31,1.04-.52.35-.21.63-.47.84-.78.21-.31.38-.66.52-1.05.12-.35.18-.75.19-1.18l.02-.02v-.21l-.02-.02c-.01-.43-.06-.83-.19-1.18Z"/>
  </g>
</svg>